<svg width="150" height="42" viewBox="0 0 150 42" fill="none" xmlns="http://www.w3.org/2000/svg">
<path fill-rule="evenodd" clip-rule="evenodd" d="M0.0176389 18.7613L0 11.7034L14.6699 11.6857C19.798 11.6857 22.2634 17.5819 22.2274 21.4945C22.1921 25.408 20.3336 31.2504 14.6876 31.2328L8.43378 31.2152V41.7215H0.0529165V24.1219H13.6685C14.6691 24.1219 15.0796 22.496 15.0083 21.5491C14.9553 20.6014 14.9553 18.815 13.7222 18.7974L0.0176389 18.7613ZM23.3522 18.7613L23.3346 11.7034L38.1111 11.6857C43.2569 11.6857 45.7584 17.5819 45.7231 21.4945C45.6878 25.408 43.418 29.214 38.1111 31.2328L45.9909 41.7215H36.789L23.3707 24.1219H37.1651C38.3621 24.1219 38.8087 22.2811 38.7373 21.3342C38.666 20.3873 38.5225 18.8864 37.1466 18.8688L23.3522 18.7613ZM47.5455 11.6857H55.4253V41.7207H47.5455V11.6857ZM51.5119 0C53.9597 0 55.9609 2.0012 55.9609 4.449C55.9609 6.91443 53.9597 8.91564 51.5119 8.91564C50.3274 8.91522 49.1915 8.44449 48.354 7.60692C47.5164 6.76936 47.0457 5.63349 47.0452 4.449C47.0452 2.0004 49.0464 0 51.5119 0Z" fill="#4A93BB"/>
<path fill-rule="evenodd" clip-rule="evenodd" d="M62.8937 17.0993L71.4534 41.7208H62.8937V17.0993ZM84.2455 17.0993L75.7236 41.7208H84.2455V17.0993ZM73.7576 30.9643L79.6185 11.6858H68.0579L73.7576 30.9643Z" fill="#CF4037"/>
<path fill-rule="evenodd" clip-rule="evenodd" d="M91.4646 11.4708L104.794 11.4885L119.768 35.1638L125.181 26.6226L115.871 11.7386L123.949 11.7563L129.22 20.0112L134.58 11.8998L143.066 11.9535L133.669 26.9802L143.049 41.667L134.455 41.6317L129.273 32.9838L124.02 41.703H116.105L101.399 19.0644L99.6298 19.0467L99.6122 29.5178L105.633 29.5707L109.493 35.2167L99.5761 35.2352L99.5593 41.7207H91.4462L91.4646 11.4708ZM150 8.45138C150 9.50571 149.624 10.3989 148.874 11.1493C148.124 11.8998 147.23 12.275 146.176 12.275H146.158V11.8461C147.106 11.8461 147.911 11.5246 148.571 10.8447C149.232 10.184 149.572 9.37983 149.572 8.45058C149.572 7.5037 149.232 6.69952 148.571 6.03887C147.911 5.37741 147.106 5.03746 146.158 5.03746V4.60852H146.176C147.23 4.60852 148.125 4.98375 148.874 5.7342C149.624 6.48465 150 7.37862 150 8.45138ZM146.157 8.64782C146.245 8.66327 146.329 8.69336 146.407 8.73682C146.568 8.84425 146.8 9.16576 147.104 9.6837L147.497 10.3804H148.158L147.747 9.62998C147.64 9.45899 147.527 9.2921 147.407 9.12968C147.264 8.93325 147.157 8.79053 147.086 8.73682C146.978 8.65787 146.864 8.58634 146.746 8.52274C147.103 8.46902 147.39 8.36158 147.568 8.20123C147.836 7.96872 147.979 7.70093 147.979 7.36178C147.979 7.04028 147.836 6.77168 147.586 6.57525C147.337 6.36118 146.925 6.25375 146.354 6.25375H146.156V6.68269C146.71 6.70033 147.05 6.77168 147.193 6.89756C147.337 7.04027 147.408 7.21907 147.408 7.4155C147.408 7.54058 147.372 7.66566 147.283 7.79073C147.194 7.91581 147.087 8.0056 146.943 8.04088C146.8 8.07616 146.532 8.11223 146.157 8.11223V8.64782Z" fill="#4A93BB"/>
<path fill-rule="evenodd" clip-rule="evenodd" d="M146.157 12.2751C145.104 12.2751 144.211 11.8998 143.461 11.1494C142.709 10.3989 142.335 9.50576 142.335 8.45144C142.335 7.37948 142.71 6.48551 143.461 5.73505C144.211 4.9846 145.104 4.60938 146.157 4.60938V5.03832C145.229 5.03832 144.425 5.37746 143.763 6.03972C143.102 6.70038 142.764 7.50455 142.764 8.45144C142.764 9.38069 143.102 10.1849 143.763 10.8455C144.425 11.5246 145.229 11.8469 146.157 11.8469V12.2751ZM146.157 6.2538H144.746V10.3813H145.282V8.59415H145.622C145.836 8.59415 146.014 8.61179 146.157 8.64787V8.11229C146.051 8.12993 145.925 8.12993 145.8 8.12993H145.282V6.68274H146.157V6.2538Z" fill="#4A93BB"/>
</svg>
