<svg width="124" height="61" viewBox="0 0 124 61" fill="none" xmlns="http://www.w3.org/2000/svg">
<path fill-rule="evenodd" clip-rule="evenodd" d="M5.53992 25.3787H56.8705C58.151 25.3787 60.3522 27.2988 60.3906 29.2189C60.4284 31.1396 58.3021 33.0598 57.0223 33.0598H16.415C15.4427 33.0598 14.8336 33.531 15.7688 34.4669L29.8757 48.5737C30.1584 48.8555 30.5413 49.0137 30.9404 49.0137C31.3396 49.0137 31.7225 48.8555 32.0052 48.5737L34.5152 46.0651C35.7811 44.7991 35.3337 44.0972 34.2872 44.0873L26.7566 44.0124L21.7372 38.9937L24.4189 36.2736L46.1883 36.2166C48.7666 36.2113 49.9357 36.6229 50.6655 37.9445C51.2328 38.9752 51.5589 40.7316 49.9145 42.3773L32.9934 59.2977C32.4882 59.8001 31.8047 60.0821 31.0922 60.0821C30.3797 60.0821 29.6962 59.8001 29.191 59.2977L0.673041 30.7791C0.0500169 30.1554 -0.330426 28.5773 0.396657 27.3829C1.12241 26.1893 2.26971 25.3787 5.53992 25.3787Z" fill="#65BBE5"/>
<path fill-rule="evenodd" clip-rule="evenodd" d="M46.0261 24.916L32.6178 11.5077C32.3349 11.2265 31.9522 11.0687 31.5533 11.0687C31.1545 11.0687 30.7718 11.2265 30.4889 11.5077L25.8394 16.1565C24.5735 17.4225 25.0209 18.1337 26.0674 18.1337L35.723 18.2225L37.0737 16.871L42.3794 22.1767L39.6785 24.8776L15.2354 24.9346C12.2349 24.9419 10.5004 24.806 9.55859 23.8575C8.62007 22.9117 9.03167 21.2514 11.2414 19.0423L29.4993 0.784416C30.0045 0.282013 30.6881 0 31.4006 0C32.1131 0 32.7966 0.282013 33.3018 0.784416L57.4088 24.8915L46.0261 24.916ZM68.3409 20.3454C68.3409 19.5633 68.9467 19.501 69.1953 19.501C69.3517 19.501 69.9316 19.5116 69.9502 20.1996V20.3454C69.9217 20.8663 69.5538 20.7623 68.5252 20.9393C67.6788 21.0957 66.7867 21.3873 66.7867 22.5962C66.7867 23.0343 66.9252 24.1299 68.4138 24.1299C68.9845 24.1299 69.6102 23.9304 69.9774 23.4088H70.0045L70.1252 23.9304H71.5959V23.8363C71.3295 23.7634 71.3109 23.4088 71.3202 22.8355L71.3474 20.4176C71.358 19.8026 71.3109 18.4372 69.2052 18.4372C68.7002 18.4372 67.0717 18.4995 67.0087 20.3447H68.3409V20.3454ZM69.9595 21.7419C69.9595 22.805 69.2788 23.0655 68.9381 23.0655C68.6803 23.0655 68.221 22.9508 68.221 22.4504C68.221 21.8566 68.7452 21.7419 69.0389 21.6895C69.5824 21.5855 69.536 21.6166 69.9595 21.4085V21.7419ZM72.4966 18.636V23.9311H75.2744C76.2852 23.9311 76.9844 23.66 76.9844 22.5763C76.9844 21.7426 76.6437 21.3774 75.8709 21.1898V21.1586C76.3773 21.0645 76.8187 20.637 76.8187 19.9179C76.8187 18.6361 75.7145 18.636 75.2837 18.636H72.4966ZM73.8945 19.6992H74.6481C75.0444 19.6992 75.3844 19.7827 75.3844 20.2201C75.3844 20.7 74.8509 20.7099 74.6209 20.7099H73.8945V19.6992ZM73.8945 21.7001H74.7501C75.4116 21.7001 75.5501 21.9712 75.5501 22.3252C75.5501 22.5545 75.458 22.8667 74.768 22.8667H73.8945V21.7001ZM78.9794 19.6992V23.9311H80.3772V19.6992H81.9222V18.636H77.4351V19.6992H78.9794ZM84.9472 24.1306C86.3994 24.1306 87.5036 23.2219 87.5036 21.2726C87.5036 19.3446 86.41 18.4379 84.9472 18.4379C83.6408 18.4379 82.3908 19.1882 82.3908 21.2726C82.3908 23.2219 83.495 24.1306 84.9472 24.1306ZM84.9472 23.0655C83.9543 23.0655 83.8443 21.95 83.8443 21.2726C83.8443 19.5845 84.635 19.501 84.9472 19.501C85.2965 19.501 86.0501 19.5845 86.0501 21.2726C86.0501 21.9401 85.9579 23.0655 84.9472 23.0655ZM91.09 23.9311H92.0179L93.2878 20.2831H93.3149L93.2878 20.5535V23.9311H94.6843V18.636H92.8285L91.5585 22.357H91.5493L90.2807 18.636H88.4229V23.9311H89.8214V20.5535L89.7935 20.2831H89.8214L91.09 23.9311ZM98.1798 24.1306C99.632 24.1306 100.735 23.2219 100.735 21.2726C100.735 19.3446 99.6413 18.4379 98.1798 18.4379C96.8735 18.4379 95.6234 19.1882 95.6234 21.2726C95.6228 23.2219 96.7257 24.1306 98.1798 24.1306ZM98.1798 23.0655C97.187 23.0655 97.0756 21.95 97.0756 21.2726C97.0756 19.5845 97.8663 19.501 98.1798 19.501C98.5291 19.501 99.2827 19.5845 99.2827 21.2726C99.2827 21.9401 99.1906 23.0655 98.1798 23.0655ZM105.093 16.1453C104.965 16.5622 104.708 16.3746 103.558 16.6033C102.335 16.8538 101.434 17.6564 101.434 20.3142C101.434 22.2741 101.968 24.1306 104.073 24.1306C105.553 24.1306 106.528 23.0761 106.528 21.2832C106.528 19.5534 105.581 18.4379 104.257 18.4379C103.143 18.4379 102.446 19.1676 102.225 20.0425H102.198C102.29 18.3961 102.969 18.0104 103.641 17.8228C104.855 17.4894 106.133 17.7704 106.234 16.1446H105.093V16.1453ZM105.076 21.3873C105.076 22.5962 104.616 23.0655 104 23.0655C103.522 23.0655 102.915 22.7739 102.915 21.3873C102.915 19.8761 103.531 19.501 104 19.501C104.459 19.501 105.076 19.8761 105.076 21.3873ZM108.845 22.0753V18.636H107.448V23.9311H108.937L110.841 20.4912V23.9311H112.24V18.636H110.758L108.845 22.0753ZM112.957 23.9536C113.14 23.9947 113.315 24.0159 113.499 24.0159C114.611 24.0159 115.337 23.6912 115.384 20.8876L115.402 19.6992H116.652V23.9311H118.05V18.636H114.068L114.023 20.8982C113.985 22.5551 113.775 22.8786 113.185 22.8786C113.112 22.8786 113.029 22.868 112.956 22.8574V23.9536H112.957ZM120.606 22.0753V18.636H119.209V23.9311H120.698L122.602 20.4912V23.9311H124V18.636H122.52L120.606 22.0753ZM69.1608 27.3895H73.5922V25.5867H67.2321V34.8645H71.1379C73.0315 34.8645 74.2471 33.9638 74.2471 32.0682C74.2471 29.0989 71.816 29.0326 71.1379 29.0326H69.1615V27.3895H69.1608ZM69.1608 30.8347H70.7634C71.2307 30.8347 72.1652 30.9023 72.1652 32.0152C72.1652 32.8887 71.4885 33.0624 70.7283 33.0624H69.1608V30.8347ZM77.6969 25.5867L74.6315 34.8645H76.6676L77.1813 33.1287H80.1519L80.6775 34.8645H82.7242L79.6482 25.5867H77.6969ZM77.6035 31.5506L78.6792 28.0126L79.7317 31.5506H77.6035ZM83.4844 25.5867V34.8645H87.3783C88.8398 34.8645 90.5127 34.5073 90.5127 32.2664C90.5127 30.5564 89.4005 30.04 88.7702 29.8942V29.8803C89.5536 29.5893 90.1137 29.0194 90.1137 27.9456C90.1137 26.9382 89.7279 25.5861 87.5878 25.5861H83.4844V25.5867ZM85.4131 27.3895H87.1092C87.9622 27.3895 88.1498 27.9065 88.1498 28.2909C88.1498 28.6488 87.9622 29.2447 87.1907 29.2447H85.4131V27.3895ZM85.4131 30.9554H87.1669C87.8688 30.9554 88.4772 31.1403 88.4772 32.0158C88.4772 32.8635 87.7521 33.063 87.4134 33.063H85.4131V30.9554ZM94.0659 25.5867L91.0005 34.8645H93.0379L93.5516 33.1287H96.5209L97.0478 34.8645H99.0932L96.0185 25.5867H94.0659ZM93.9724 31.5506L95.0481 28.0126L96.1006 31.5506H93.9724ZM99.8547 25.5867V34.8645H101.783V31.6712H103.619C104.614 31.6712 106.754 31.4849 106.754 28.5826C106.754 26.29 105.327 25.5867 103.666 25.5867H99.8547ZM101.783 27.3895H103.291C103.723 27.3895 104.671 27.3365 104.671 28.5958C104.671 29.4966 104.204 29.8677 103.291 29.8677H101.783V27.3895ZM109.886 31.5777V25.5867H107.957V34.8645H109.886L113.15 28.8079V34.8645H115.078V25.5867H113.15L109.886 31.5777ZM118.808 31.5777V25.5867H116.879V34.8645H118.808L122.07 28.8079V34.8645H124V25.5867H122.07L118.808 31.5777Z" fill="white"/>
</svg>
