<svg width="118" height="53" viewBox="0 0 118 53" fill="none" xmlns="http://www.w3.org/2000/svg">
<path fill-rule="evenodd" clip-rule="evenodd" d="M67.1399 35.0476L67.0425 34.9993H66.8982L66.8008 34.9509H66.4135L66.3161 34.9993H66.1228L66.0254 35.0476H65.8321L65.7837 35.1436L65.7354 35.2893L65.6871 35.482L65.6387 35.676L65.5904 35.8687L65.5434 36.0144L65.4951 36.207L65.4467 36.4011L65.3984 36.5937L65.301 36.8361L65.2527 37.0288L65.2044 37.2215L65.1084 37.4155L65.06 37.6082L64.9627 37.8505L64.9143 38.0432L64.8183 38.2372L64.721 38.4782L64.6236 38.6709L64.5263 38.8649L64.4303 39.106L64.3329 39.2986L64.1873 39.4927L64.0912 39.7337L63.8489 40.0237L63.6079 40.3151L63.3669 40.5078L63.0768 40.7018L62.7855 40.8945L62.4001 40.9918L62.0134 41.0401H61.5784L61.1433 40.9428L60.7566 40.7971L60.4182 40.5561L60.1282 40.2661L59.8872 39.976L59.7415 39.6847L59.6442 39.3946L59.5482 39.1046L59.4508 38.8146L59.4018 38.4762V37.2181L59.4508 36.9281L59.4992 36.6381L59.5475 36.348L59.6435 36.107L59.6918 35.8156L59.7402 35.7686L59.6918 35.8156L59.4992 36.0097L59.2568 36.154L59.0634 36.348L58.8218 36.4937L58.6284 36.6381L58.3867 36.7837L58.145 36.9281L57.9517 37.0738L57.71 37.2181L57.4683 37.3155L57.2266 37.4611L56.9849 37.5585L56.7432 37.6545L56.5499 37.7518L56.3082 37.8492L56.0665 37.9452L55.8248 38.0425L55.5831 38.1399L55.3414 38.1882L55.1481 38.2842L54.9064 38.3816L54.6647 38.4299L54.423 38.5273L54.2297 38.5756L53.988 38.6239L53.7946 38.7199L53.5529 38.7683L53.3596 38.8166L53.1662 38.8649L52.9245 38.9623L52.7312 39.0093L52.4895 39.0576L52.2962 39.106L52.0545 39.2033L51.8611 39.2517L51.6194 39.2986L51.3777 39.347L51.1844 39.3953L50.9427 39.4437L50.701 39.492L50.4593 39.5403L50.2176 39.5887L50.0243 39.637L49.7833 39.684L49.5416 39.7323H49.2999L49.0582 39.7807L48.8165 39.829H48.5748L48.3331 39.8774H48.0914L47.8497 39.9257H47.3664L47.1247 39.974H45.8713L45.6296 39.9257H45.2429L45.1462 39.8774H44.9045L44.7595 39.829H44.6145L44.5178 39.7807H44.3728L44.2761 39.7323L44.1311 39.684L44.0344 39.637H43.8894L43.7927 39.5887L43.6954 39.5403L43.5504 39.443L43.4537 39.3946L43.3087 39.3463L43.212 39.2503L43.067 39.153L42.9696 39.1046L42.873 39.0073L42.7279 38.8629L42.6306 38.7656L42.5339 38.6682L42.4366 38.5239L42.3882 38.3782L42.2916 38.2339L42.1949 38.0882L42.1465 37.9425L42.0982 37.7982L42.0499 37.6041V37.5081L42.0015 37.4108V36.8314L42.0499 36.6857V36.54L42.0982 36.3957V36.25L42.1465 36.1057L42.1949 36.0083L42.2432 35.8626L42.2916 35.7183L42.3399 35.6209L42.3882 35.4753L42.4366 35.3309L42.5339 35.2336L42.5823 35.1362L42.6306 34.9919L42.7279 34.8462L42.7763 34.7019L42.873 34.6045L42.9696 34.4588L43.018 34.3628L43.1147 34.2171L43.2113 34.1198L43.308 34.0224L43.4047 33.9264L43.5497 33.8291L43.6464 33.7317L43.743 33.6357L43.8397 33.5384L43.9847 33.441L44.0814 33.3927L44.1781 33.2967L44.3231 33.1994L44.4198 33.151L44.5648 33.1027L44.6615 33.0543L44.8065 32.957L44.9031 32.91L45.0482 32.8617L45.1448 32.8133L45.2898 32.765H45.3872L45.5322 32.7166L45.6772 32.6683L45.7739 32.62L45.9673 32.573H46.3056L46.4023 32.5246H46.789L46.934 32.573H47.1274L47.4174 32.669L47.9491 32.863L48.2391 33.153H48.4325L48.5775 33.1047L48.8675 33.0564L49.1575 33.008L49.4476 32.9597L49.7376 32.9127L50.0276 32.8643L50.3183 32.816L50.6567 32.7677L50.9467 32.7193L51.2367 32.671L51.5268 32.575L51.8168 32.5267L52.1068 32.4783L52.3485 32.381L52.6385 32.3326L52.9286 32.2353L53.2186 32.1393L53.4603 32.0909L53.7503 31.9936L53.7986 31.9453H52.9769L52.7352 31.9936H51.7685L51.5751 31.9453H50.7534L50.56 31.8969H50.3667L50.1733 31.8499H49.7866L49.5933 31.8016L49.3999 31.7532H49.2066L49.0132 31.7049H48.8199L48.6265 31.6566L48.4332 31.6082L48.2398 31.5599H48.0465L47.8531 31.5129L47.7081 31.4646L47.5147 31.4162L47.3214 31.3679L47.128 31.3195L46.838 31.2222L46.4996 31.0779L46.3063 30.9805L46.1129 30.8348L45.9196 30.6905L45.7262 30.5448L45.5329 30.3521L45.3879 30.2064L45.2429 30.0138L45.1462 29.8197L45.0495 29.6271L44.9528 29.4344L44.8562 29.2404L44.8078 29.0477L44.7595 28.8536L44.7111 28.661L44.6628 28.4669V27.1679L44.7111 27.0222V26.8778L44.7595 26.7322V26.5878L44.8078 26.4421V26.3448L44.8562 26.2004V26.1031L44.9528 25.8131L45.0012 25.5224L45.0978 25.2807H43.9861L42.5359 30.7912H34.9476L44.6145 0H54.1854L59.9725 18.4167H60.2752L60.5176 18.465H60.7586L60.9996 18.5134L61.242 18.5617L61.483 18.6584L61.773 18.7551L62.0631 18.9001L62.4028 19.0934L62.6928 19.3835L62.9338 19.7218L63.1265 20.1569L63.2239 20.4952L63.2722 20.6402V20.8343L63.3205 20.9793V22.1401L63.2722 22.2367V22.3818L63.2239 22.5268L63.1755 22.6234V22.7685L63.1272 22.9135L63.0802 23.0585L63.0318 23.2035L62.9345 23.3485L62.8862 23.4452L62.7888 23.5902L62.6928 23.7352L62.5955 23.8802L62.4981 24.0252L62.4021 24.1703L62.2564 24.2669L62.1107 24.4119L61.9288 24.5032L62.6096 26.708L62.7405 26.4905L62.8848 26.2964L63.0305 26.1038L63.1748 25.8621L63.3205 25.6687L63.4649 25.4754L63.6106 25.2337L63.7562 25.0403L63.9006 24.7986L64.0463 24.6053L64.1423 24.3636L64.288 24.1703L64.4336 23.9286L64.578 23.7352L64.7237 23.4935L64.821 23.3002L64.9654 23.0585L65.1594 22.8168L65.2554 22.6718L65.3037 22.5751L65.4011 22.4784L65.4494 22.3334L65.5468 22.2367L65.6428 22.1401L65.7401 21.995L65.7884 21.8984L65.8858 21.8017L65.9818 21.6567L66.0791 21.56L66.1765 21.4633L66.2725 21.3183L66.4182 21.2216L66.5155 21.125L66.5639 21.0927V0.00268396H74.9256C77.8749 0.00268396 79.9528 0.147698 81.1122 0.486063C82.3697 0.776761 83.3848 1.30781 84.3025 2.03287C85.3189 2.90295 86.091 3.96639 86.6234 5.27151C87.1544 6.57663 87.4458 8.02676 87.4458 9.57357C87.4458 11.9905 86.9134 13.9233 85.85 15.3741C84.7865 16.8726 83.1921 17.8877 81.1612 18.3711L82.7886 21.0055L82.8054 20.9813L82.9014 20.8846L83.0471 20.7879L83.1444 20.6429L83.2404 20.5463L83.3861 20.4496L83.4834 20.3529L83.6278 20.2562L83.7251 20.1596L83.8708 20.0629L84.0152 19.9662L84.1609 19.8695L84.3052 19.8212L84.4992 19.7245L84.6919 19.6278L84.8859 19.5795L85.1269 19.5312L85.4653 19.4828H85.852L86.336 19.6278L86.8188 19.9179L86.9161 20.0145H86.9644L87.1101 19.9662L87.2061 19.9179H87.3518L87.4492 19.8695H87.5452L87.6908 19.8212L87.7882 19.7729H87.8842L87.9815 19.7245H88.0789L88.1762 19.6762H88.2722L88.3206 19.6278H88.5139L88.5623 19.5795H88.708L88.8536 19.5312H89.8204L90.0614 19.5795L90.3024 19.6768L90.4965 19.7735L90.6891 19.8702L90.7375 19.7252L90.8832 19.4835L90.9805 19.2418L91.1248 19.0485L91.2705 18.8551L91.4149 18.6618L91.5606 18.4684L91.7532 18.3234V0.00268396H99.2939V13.9723L100.26 12.4738L108.188 0.00268396H117.082L106.738 14.9867L118 30.7932H108.477L106.463 27.7902L106.399 27.8439L106.109 28.0366L105.818 28.2306L105.479 28.4233L105.142 28.6173L104.802 28.7617L104.464 28.9074L104.079 29.053L103.692 29.149L103.305 29.2464L102.919 29.2947H102.049L101.662 29.2464L101.228 29.149L100.793 29.053L100.358 28.859L99.923 28.6663L99.5846 28.5207L99.5363 28.4723L99.392 28.3763L99.2946 28.328V30.7932H95.7659L95.6686 30.8402L95.2819 30.9859L94.9435 31.1316L94.5568 31.2276L94.1231 31.2759L93.6881 31.3242L93.2531 31.2269L92.7703 31.1309L92.3353 30.9369L92.0741 30.7925H91.7539V30.5502L91.6096 30.4058L91.4156 30.2118L91.2712 30.0191L91.1739 29.8251L91.1255 29.8734L90.9812 30.0191L90.8355 30.1635L90.6898 30.3092L90.4971 30.4548L90.3514 30.5992L90.1588 30.6965L90.0131 30.8409L89.772 30.9866L89.531 31.1792L89.2397 31.3249L88.9496 31.4706L88.6596 31.5666L88.3213 31.664L88.0312 31.7123H87.4028L87.0645 31.664L86.7744 31.6156L86.4831 31.5196L86.193 31.3739L85.903 31.2282L85.662 31.0356L85.468 30.8415L85.4076 30.7945H82.0367L81.7466 30.8905L81.4553 30.9879H81.3593L81.3109 31.0362L81.1652 31.1806L81.0692 31.3746L80.9236 31.5203L80.7779 31.6646L80.5852 31.8103L80.4395 32.003L80.2952 32.1487L80.1011 32.293L79.9568 32.4387L79.7628 32.5844L79.5701 32.7287L79.3761 32.8261L79.135 32.9704L78.9424 33.0678L78.7 33.2134L78.459 33.3108L78.218 33.4068L77.9756 33.4551L77.6856 33.5035L77.3956 33.5518L77.1545 33.6002H76.5731L76.2831 33.5518L75.9448 33.5035L75.6547 33.4061L75.3647 33.3101L75.1223 33.2128L74.9297 33.1154L74.8323 33.0671L74.688 32.9697L74.5906 32.9228L74.4449 32.8254L74.3489 32.7771L74.2516 32.6797L74.1059 32.5837L74.0099 32.5354L73.9126 32.438L73.8152 32.3407L73.7669 32.2924L73.6225 32.438L73.4285 32.6307L73.2358 32.7764L72.9935 32.9691L72.8008 33.1631L72.5598 33.3558L72.3657 33.5498L72.1247 33.7425L71.8837 33.8882L71.6413 34.0808L71.3513 34.2265L71.1103 34.3722L70.8203 34.5166L70.5303 34.6622L70.2389 34.7582L69.9005 34.9039L69.5621 34.9523L69.2721 35.0496L68.9338 35.0966L68.5471 35.145H67.822L67.4836 35.0966L67.3863 35.0496H67.1399V35.0476ZM73.7615 23.5909L74.0039 23.9776L74.0509 24.0749L74.1482 23.9299L74.3892 23.6882L74.5832 23.4465L74.8243 23.2048L75.0666 22.9631L75.3076 22.7698L75.5487 22.5281L75.693 22.4133L74.9209 20.9336L73.7602 18.7101V23.5909H73.7615ZM74.9223 6.47928H73.7615V14.5517H75.1633C76.8074 14.5517 78.0152 14.2133 78.7886 13.6333C79.5137 13.0049 79.9004 12.0381 79.9004 10.733C79.9004 9.1862 79.562 8.07443 78.837 7.44604C78.1119 6.76931 76.9511 6.47928 75.26 6.47928H74.9223ZM55.2743 26.8731L55.2125 26.6348L55.1038 26.5401L54.8621 25.8627H54.7171L54.5721 25.9111L54.4747 25.9587L54.3297 26.0071L54.1847 26.0554L54.088 26.1038H53.943L53.798 26.1521L53.7013 26.2004L53.604 26.2488L53.5073 26.2958L53.3623 26.3441L53.2656 26.3924L53.1219 26.4428L52.9769 26.4911L52.8319 26.5395L52.6869 26.5878H52.7352L52.9286 26.6348H53.4119L53.6536 26.6831H53.8953L54.137 26.7315H54.3304L54.5721 26.7798H54.8131L55.0548 26.8282L55.2743 26.8731ZM52.7352 19.2888H53.2186L52.7352 17.452L50.3667 9.13786C50.3183 8.79949 50.1733 8.31612 50.0283 7.64006C49.8833 6.91499 49.6416 6.04491 49.4482 4.98148C49.2549 5.75489 49.1099 6.47928 48.9649 7.15668C48.781 7.81154 48.6198 8.47255 48.4815 9.13853L45.6296 19.2895H52.7352V19.2888ZM34.0775 30.7939H26.9235L25.3283 17.452C25.1833 16.5335 25.0867 15.4701 24.99 14.3583C24.8933 13.1982 24.7966 11.9415 24.7 10.5397C24.4626 12.1862 24.1236 13.8164 23.6849 15.4211C23.5398 15.8561 23.4915 16.1462 23.4432 16.3395L19.5761 30.7925H14.5007L10.682 16.3395C10.6336 16.1462 10.537 15.8561 10.4403 15.4211C9.95692 13.4876 9.57022 11.8931 9.4252 10.5873L9.13518 14.0676C9.0385 15.1794 8.89349 16.3395 8.74847 17.4513L7.15333 30.7932H0L4.3504 0.00201297H11.8911L16.1442 15.8561C16.1925 15.9528 16.2408 16.1462 16.2892 16.4362C16.7242 17.838 16.9659 19.0464 17.0626 20.0615C17.1109 19.5298 17.2076 18.9014 17.3526 18.2247C17.4976 17.5963 17.691 16.7746 17.9327 15.8078L22.1864 0.00201297H29.7754L34.0775 30.7939ZM80.2878 21.5607L80.6261 21.609L80.8672 21.7057L81.1082 21.8024L81.3022 21.899L81.4465 22.0441L81.6406 22.2374L81.7862 22.4791L81.8822 22.7208L81.9306 22.9625L81.9789 23.0108L82.2199 23.2042L82.2683 23.1075L82.3656 22.9141L82.463 22.7691L82.51 22.6241L82.6073 22.4791L82.7047 22.3341L82.802 22.2374L82.8503 22.0924L82.9464 21.9957L83.0437 21.8507L83.092 21.754L83.1894 21.6574L83.2364 21.5607L83.3337 21.464L83.4311 21.3673L83.5284 21.2707L83.6244 21.1733L83.7218 21.0766L83.8191 20.98L83.9165 20.8833L84.0608 20.8349L84.1581 20.7383L84.2555 20.6409L84.3998 20.5926L84.4972 20.4959L84.6415 20.4476L84.7872 20.3509L84.9329 20.3026L85.0772 20.2542L85.2713 20.2059H85.754L86.0453 20.3026L86.3354 20.4959L86.5764 20.7376L86.6247 20.8343L86.7704 20.7859H86.8664L87.0121 20.7376L87.1564 20.6893L87.2538 20.6409H87.3995L87.4955 20.5926L87.6412 20.5442H87.7385L87.8359 20.4959H87.9319L88.0776 20.4476L88.1259 20.3992H88.3192L88.4166 20.3509H88.5126L88.5609 20.3026H88.7066L88.804 20.2542H89.0457L89.1913 20.2059H89.5774L89.723 20.2542L89.8687 20.3026L90.0131 20.3509L90.2071 20.3992L90.3514 20.4959L90.4971 20.5926L90.5945 20.7376L90.6905 20.8343L90.7878 20.9793L90.8852 21.076L90.9335 21.1243L90.9818 20.9793V20.884L91.0288 20.7389L91.0772 20.6416L91.1255 20.5449L91.2229 20.3999L91.2712 20.3032L91.3195 20.1582L91.3665 20.0132L91.5122 19.8198L91.6096 19.6265L91.7056 19.4331L91.8512 19.2881L91.9486 19.0948L92.0929 18.9498L92.2386 18.8048L92.3843 18.6597L92.5287 18.5631L92.6743 18.4181L92.8187 18.3214L93.0127 18.2247L93.1571 18.128L93.3027 18.0313L93.4954 17.983L93.6411 17.8863L93.7868 17.838L93.9795 17.7897L94.1251 17.7413L94.3178 17.693L94.4635 17.6446L94.6078 17.5963H94.8019L94.9462 17.548L95.1402 17.4996H95.2846L95.4303 17.4513H95.5276V17.403L95.6236 17.3063L95.672 17.1613L95.7203 17.0646L95.7686 16.9679L95.866 16.8229L95.9143 16.7256L96.0103 16.5805L96.0587 16.4839L96.156 16.3389L96.2534 16.2422L96.3494 16.1455L96.4467 16.0005L96.5441 15.9038L96.6414 15.8071L96.7374 15.6621L96.8831 15.5654L96.9804 15.4688L97.1248 15.3721L97.2705 15.2754L97.4148 15.2271L97.5605 15.1297L97.7048 15.0814L97.8505 14.9847L97.9962 14.9364L98.1889 14.888L98.3346 14.8397L98.5272 14.7914H98.8173L99.0596 14.743L99.3497 14.7914L99.6397 14.8397L99.9781 14.9847L100.316 15.2748L100.51 15.6615L100.606 16.0482L100.558 16.3865L100.462 16.6282L100.414 16.8216L100.316 16.9182H101.428L100.751 18.5134L100.703 18.6107L100.655 18.7074L100.606 18.8041L100.558 18.9008V18.9974L100.511 19.0941L100.463 19.1908L100.414 19.2875L100.366 19.3841L100.318 19.4808L100.269 19.5775L100.221 19.6748L100.174 19.7715L100.077 19.8682L100.028 19.9649L99.9801 20.0615L99.9317 20.1582L99.8834 20.2549L99.8364 20.3516L99.7881 20.4482L99.6907 20.5933L99.6424 20.6899L99.594 20.7866L99.5457 20.8833L99.4497 20.98L99.4014 21.0766L99.353 21.1733L99.2557 21.2707L99.2073 21.3673L99.159 21.464L98.7723 21.9474L98.2412 22.0441H97.8545L97.8062 22.0924H97.3712L97.3242 22.1407H96.9865L96.9381 22.1891L96.8898 22.3341L96.7924 22.4791L96.7441 22.6241L96.6481 22.7691L96.5998 22.9141L96.5024 23.0592L96.4541 23.2042L96.3568 23.3492L96.3097 23.4942L96.2614 23.6392L96.1641 23.7842L96.1157 23.9292L96.0674 24.0742L96.0191 24.2193L95.972 24.3643L95.9237 24.5093L95.8754 24.6543V24.7993L95.827 24.9443L95.7787 25.041V25.331L95.7304 25.4277V25.6211L95.7787 25.5727L95.9244 25.5244L96.0687 25.4277L96.2144 25.2827L96.4071 25.186L96.5528 25.0893L96.6971 24.9443L96.8911 24.7993L97.0355 24.6543L97.1812 24.5093L97.3269 24.4126L97.4712 24.2676L97.6169 24.1226L97.7612 24.0259L97.8586 23.8809L97.9559 23.7835L98.0533 23.6869L98.1493 23.6385L98.2466 23.5419L98.3923 23.3485L98.585 23.1068L98.7777 22.9135L98.9233 22.6718L99.1174 22.4301L99.31 22.2367L99.4557 22.0434L99.6001 21.85L99.7941 21.609L99.9384 21.4157L100.084 21.2707L100.228 21.0773L100.374 20.884L100.52 20.6906L100.664 20.5456L100.81 20.3522L101.051 20.0622L101.197 19.8689L101.293 19.7238L101.39 19.5788L101.536 19.4338L101.632 19.3371L101.729 19.1921L101.826 19.0471L101.924 18.9504L102.02 18.8054L102.117 18.7087L102.214 18.6121V18.5637L102.263 18.4671V18.322L102.311 18.2254V18.0804L102.358 17.983L102.406 17.8863V17.742L102.455 17.6453L102.503 17.5486L102.551 17.4036L102.649 17.307L102.696 17.2103L102.793 17.1136L102.841 17.0169L102.939 16.9196L103.036 16.8229L103.083 16.7746L103.18 16.6779L103.278 16.6296L103.375 16.5329L103.519 16.4845L103.617 16.4362L103.714 16.3879L103.81 16.3395L103.956 16.2912L104.053 16.2428H104.149L104.295 16.1945H104.392L104.585 16.1462H105.166L105.358 16.1945L105.599 16.2919L105.84 16.4369L106.083 16.6302L106.227 16.8719L106.275 17.0653L106.324 17.2586L106.372 17.3553V17.5003L106.42 17.597V17.7903L106.469 17.8387V17.887L106.517 17.9353V17.9837L106.564 18.032V18.0804L106.612 18.1287V18.177L106.661 18.2254V18.2737L106.709 18.322L106.757 18.3704V18.4187L106.806 18.4671L106.854 18.5637V18.6121L106.902 18.6604L106.949 18.7087V18.8054L106.998 18.8538L107.046 18.9021L107.094 18.9988V19.0471L107.143 19.1445L107.191 19.1928V19.2411L107.287 19.4345L107.433 19.7245L107.53 20.0145L107.579 20.3529L107.625 20.6429V21.5137L107.579 21.8037L107.53 21.8521L108.932 20.5476L109.511 23.8346L108.98 24.4146L108.835 24.608L108.594 24.849L108.4 25.0423L108.207 25.284L108.013 25.5257L107.772 25.7191L107.531 25.9601L107.288 26.2025L107.047 26.3951L106.806 26.6362L106.564 26.8302L106.274 27.0712L106.033 27.2652L105.743 27.4579L105.453 27.6519L105.163 27.7963L104.872 27.9903L104.533 28.1346L104.243 28.232L103.905 28.3777L103.566 28.4737L103.228 28.522L102.841 28.5703H102.116L101.778 28.522L101.391 28.4737L101.005 28.3777L100.666 28.232L100.279 28.0379L99.9411 27.8936L99.8928 27.8453L99.7968 27.7969L99.6994 27.7486L99.6021 27.6526L99.5047 27.6043L99.4577 27.5559L99.3604 27.5076L99.2631 27.4102L99.2147 27.3619L99.1187 27.2659L99.0214 27.2175L98.973 27.1202H98.9247L98.779 27.3142L98.5863 27.5552L98.3453 27.7479L98.1513 27.9903L97.9103 28.2313L97.7162 28.4723L97.4752 28.6663L97.2342 28.9074L96.9932 29.1L96.7018 29.3424L96.4608 29.5351L96.2198 29.7291L95.9298 29.9218L95.6384 30.0675L95.3484 30.2118L95.0583 30.3575L94.7683 30.4548L94.4299 30.5508L94.0916 30.5992H93.7532L93.3665 30.5508L93.0281 30.4548L92.6898 30.3092L92.3514 30.1165L92.1574 29.9224L91.9647 29.7781L91.819 29.5841L91.7217 29.3914L91.6257 29.1974L91.5283 29.0047L91.431 28.8107L91.3826 28.618V28.5697L91.3357 28.667L91.19 28.8114L91.0926 28.957L90.9483 29.1014L90.8026 29.1987L90.6569 29.3444L90.5126 29.4888L90.3669 29.6344L90.2225 29.7801L90.0769 29.8761L89.9325 30.0218L89.7385 30.1662L89.5928 30.2635L89.4001 30.4092L89.1591 30.5535L88.9167 30.6992L88.6757 30.7966L88.4347 30.8926L88.1937 30.9409L87.9513 30.9892L87.7103 31.0376L87.4693 30.9892H87.2269L86.9859 30.9409L86.7449 30.8436L86.5025 30.7476L86.3099 30.6502L86.1158 30.5045L85.9715 30.3602L85.7775 30.1662L85.6331 29.9735L85.5358 29.8278L85.3901 29.5868L85.2941 29.3941L85.2458 29.2001L85.1484 28.9591L85.1001 28.765V28.524L85.0517 28.283V27.6069L85.1001 27.3646L85.0041 27.5103L84.8101 27.7513L84.6644 27.9453L84.52 28.138L84.326 28.332L84.1333 28.5247L83.9406 28.6704L83.7466 28.863L83.5539 29.0571L83.3599 29.2014L83.1672 29.3471L82.9249 29.4914L82.7322 29.6371L82.4912 29.7828L82.2488 29.9272L82.0078 30.0245L81.7668 30.1218L81.5244 30.2178L81.2834 30.3152L80.9934 30.3635H80.945L80.8967 30.4609L80.7994 30.6052L80.655 30.7509L80.5577 30.8953L80.412 31.0409L80.2676 31.1853L80.1219 31.331L79.9776 31.4766L79.8319 31.621L79.6876 31.7667L79.4936 31.864L79.3492 32.0084L79.2035 32.154L79.0108 32.2501L78.8168 32.3474L78.6241 32.4447L78.4301 32.5421L78.2374 32.6381L77.9951 32.7354L77.8024 32.7838L77.5614 32.8321L77.3674 32.8805H76.643L76.402 32.8321L76.1609 32.7838L75.9186 32.7354L75.6776 32.6381L75.4365 32.5421L75.2909 32.4938L75.1935 32.4454L75.0975 32.3971L74.9518 32.3487L74.8545 32.2514L74.7585 32.2044L74.6611 32.1071L74.5638 32.0587L74.4664 31.9614L74.4181 31.913L74.3221 31.817L74.2247 31.7687L74.1274 31.6713L74.0314 31.574L73.983 31.478L73.8857 31.3806L73.8374 31.2833H73.789L73.693 31.3806L73.499 31.5733L73.3533 31.719L73.1606 31.9117L72.968 32.1057L72.7739 32.2984L72.5812 32.4441L72.3389 32.6368L72.1462 32.8308L71.9522 32.9751L71.7112 33.1691L71.4702 33.3148L71.2761 33.4592L71.0351 33.6049L70.7941 33.7492L70.5041 33.8949L70.2617 33.9922L69.9717 34.1366L69.7307 34.2339L69.4406 34.2823L69.1493 34.3796L68.8592 34.4266H67.9408L67.6025 34.3796H67.4078L67.3118 34.3313H67.1171L67.0197 34.2829H66.8754L66.778 34.2346H66.3906L66.3423 34.2829H66.198L66.1006 34.3313H65.9549L65.8589 34.3796H65.3259L65.2775 34.4266L65.2292 34.5723L65.1822 34.765L65.1339 34.959L65.0855 35.1033L65.0372 35.2973L64.9889 35.49L64.9405 35.684L64.8922 35.8767L64.8452 36.0224L64.7968 36.2151L64.7485 36.4091L64.6512 36.6018L64.6028 36.7958L64.5545 36.9885L64.5075 37.1825L64.4101 37.3752L64.3618 37.5692L64.2645 37.8102L64.2161 38.0029L64.1201 38.1969L64.0228 38.3896L63.9254 38.5836L63.8281 38.7763L63.7321 38.9704L63.6347 39.163L63.489 39.3557L63.3447 39.5981L63.1507 39.7908L62.958 39.9848L62.7653 40.1291L62.523 40.2265L62.2819 40.3238L61.9919 40.3721H61.7019L61.3622 40.2748L61.1212 40.1775L60.8801 39.9848L60.6861 39.7908L60.5418 39.5981L60.3961 39.404L60.2987 39.163L60.2518 38.922L60.2034 38.6797L60.1551 38.3896L60.1067 38.0996V37.5686L60.1551 37.3262L60.2034 37.0362L60.2518 36.7952L60.2987 36.5528L60.3471 36.2628L60.3954 36.0217L60.4928 35.7807L60.5901 35.5384L60.6861 35.2973L60.7835 35.1033L60.8808 34.8623L60.9782 34.6213L61.0742 34.4273L61.2198 34.1863L61.3172 33.9936L61.4132 33.7512L61.5589 33.5585L61.6562 33.3645L61.7522 33.1718L61.8979 32.9778L61.9953 32.7851L62.0913 32.5924L62.237 32.3984L62.3343 32.2527L61.8993 32.2057L61.4152 31.9634L61.1252 31.5767L60.9808 31.2383L60.9325 31.094L60.9808 31.2383V32.1084L60.9325 32.3494V32.5434L60.8842 32.7361L60.7868 32.9301L60.7385 33.1712L60.6425 33.3638L60.5451 33.5579L60.4478 33.7022L60.3504 33.8962L60.2544 34.0889L60.1571 34.2829L60.0114 34.4273L59.9154 34.6213L59.7697 34.7656L59.624 34.9597L59.4307 35.1523L59.2373 35.298L59.044 35.4907L58.8506 35.6364L58.6573 35.7821L58.4639 35.9264L58.2706 36.0721L58.0289 36.2164L57.8355 36.3621L57.5938 36.4595L57.4005 36.6038L57.1588 36.7012L56.9655 36.7985L56.7238 36.8945L56.5304 37.0402L56.2887 37.1375L56.047 37.2335L55.8537 37.2819L55.612 37.3792L55.3703 37.4766L55.177 37.5739L54.9353 37.6209L54.6936 37.7183L54.5002 37.7666L54.2592 37.864L54.0659 37.9123L53.8242 37.9593L53.6308 38.0566L53.3891 38.105L53.1958 38.1533L53.0024 38.2016L52.7607 38.2977L52.5674 38.346L52.374 38.3943L52.1323 38.4427L51.939 38.491L51.6973 38.5883L51.5039 38.6367L51.2623 38.6837L51.0206 38.732L50.8272 38.7804L50.5855 38.8287L50.3438 38.877L50.1505 38.9254H49.9088L49.6671 38.9737L49.4254 39.0207L49.2321 39.069L48.9904 39.1174H48.7487L48.507 39.1657H48.2653L48.072 39.2141H47.5886L47.3469 39.2624H45.7034L45.4617 39.2141H45.1234L45.0267 39.1657H44.93L44.785 39.1174H44.6883L44.5916 39.069H44.495L44.3983 39.0207H44.3016L44.2049 38.9737L44.1083 38.9254L44.0116 38.877L43.9149 38.8287L43.8182 38.7804L43.7209 38.732L43.6242 38.6837L43.5275 38.6367L43.4309 38.5393L43.3825 38.491L43.2858 38.3937L43.1885 38.2963L43.1402 38.2493L43.0435 38.152L42.9951 38.0546L42.9468 37.9103L42.8985 37.8129L42.8501 37.7156L42.8018 37.6182V37.4739L42.7535 37.4256V36.6508L42.8018 36.5535L42.8501 36.4575V36.3601L42.8985 36.2144L42.9468 36.1184L42.9951 36.0211L43.0435 35.8754L43.0918 35.7794L43.1402 35.682L43.1885 35.5364L43.2368 35.4403L43.2852 35.343L43.3335 35.1973L43.4302 35.1L43.4785 35.004L43.5752 34.9066L43.6235 34.8093L43.7202 34.7133L43.7686 34.6159L43.8652 34.5186L43.9619 34.4212L44.0586 34.3252L44.1069 34.2769L44.2036 34.1795L44.3003 34.1312L44.3969 34.0339L44.4936 33.9869L44.5903 33.8895L44.687 33.8412L44.7836 33.7928L44.9287 33.7445L45.0253 33.6962L45.122 33.6492L45.2187 33.6008L45.3154 33.5525L45.4127 33.5042L45.5577 33.4558L45.6544 33.4075H45.7511L45.8477 33.3591H45.9928L46.1378 33.3121H46.2345L46.2828 33.2638H46.9112L47.0562 33.3121L47.2495 33.3591L47.5396 33.4565L48.023 33.9405H48.0713L48.2163 33.8922H48.3613L48.5547 33.8439H48.748L49.038 33.7955L49.3281 33.7472L49.6181 33.6988L49.9081 33.6518L50.1982 33.6035L50.4882 33.5552L50.7782 33.4578L51.0682 33.4095L51.4066 33.3611L51.6966 33.3142L51.9867 33.2168L52.2767 33.1685L52.5667 33.0711L52.8567 33.0228L53.1468 32.9268L53.4368 32.8294L53.7275 32.7811L54.0175 32.6838L54.2592 32.5394L54.5492 32.4421L54.7909 32.3447L55.0809 32.2474L55.3226 32.103L55.5643 31.9573L55.806 31.8613L55.9994 31.7157L56.1927 31.6183L56.0477 31.57L55.9027 31.523L55.7577 31.4746L55.661 31.4263H55.516L55.371 31.378H55.226L55.0326 31.3296H54.7426L54.5976 31.2813H53.9692L53.8242 31.2329H53.4368L53.2918 31.2813H51.3818L51.1884 31.2329H50.6567L50.4633 31.1846H50.27L50.0766 31.1376H49.8833L49.6899 31.0893H49.4966L49.3032 31.0409H49.1582L48.9649 30.9926L48.7715 30.9443H48.5782L48.3848 30.8959L48.1915 30.8476L48.0465 30.8006L47.8531 30.7522H47.6597L47.4664 30.7039L47.3214 30.6556L47.0314 30.5582L46.838 30.4622L46.6447 30.3649L46.4996 30.2675L46.3546 30.1702L46.2096 30.0258L46.0646 29.9285L45.9679 29.7842L45.8229 29.6385L45.7262 29.4458L45.6779 29.3001L45.5812 29.1544L45.5329 29.0101L45.4845 28.8644L45.4362 28.6717V28.526L45.3879 28.3817V28.236L45.3395 28.0903V27.5103L45.3879 27.3646V27.1229L45.4362 26.9772V26.7355L45.4845 26.5912V26.4938L45.5329 26.3481V26.2521L45.6296 26.0098L45.6779 25.7681L45.7746 25.5264L45.8713 25.2847L45.9679 25.043L46.0646 24.8497L46.1613 24.6563L46.3063 24.4146L46.403 24.2213L46.548 24.0279L46.693 23.8829L46.838 23.6896L46.983 23.5445L47.1764 23.3512L47.3214 23.2062L47.5147 23.0612L47.6597 22.9162L47.8531 22.8195L47.9981 22.6745L48.1915 22.5295L48.3848 22.4328L48.5782 22.2878L48.7715 22.1904L48.9165 22.0937L49.1099 21.9971L49.3032 21.9004L49.4966 21.8037L49.6899 21.707L49.8833 21.6104L50.0766 21.5137L50.27 21.417L50.4633 21.3203L50.6084 21.272L50.8017 21.1746L50.9951 21.1263L51.1401 21.0296L51.3334 20.933L51.5268 20.8846L51.7201 20.7879L51.9135 20.7396L52.0585 20.6913L52.2518 20.5946L52.4452 20.5463L52.6385 20.4979L52.8319 20.4012L53.0252 20.3529L53.2186 20.3046L53.4119 20.2079L53.6536 20.1596L53.847 20.1112L54.0403 20.0629L54.2337 20.0145L54.427 19.9662L54.6687 19.9179L54.8621 19.8695L55.0554 19.7729L55.2971 19.7245H55.4905L55.7322 19.6762L55.9255 19.6278L56.1672 19.5795L56.3606 19.5312L56.6022 19.4828L56.7956 19.4345H56.9406L57.0373 19.3861H57.3273L57.4723 19.3378H57.6173L57.7624 19.2895H57.9557L58.1491 19.2411H58.3424L58.5358 19.1928H58.7291L58.9225 19.1445H60.4209L60.6619 19.1928H60.856L61.0486 19.2411L61.291 19.3378L61.4837 19.3861L61.7247 19.5312L61.9187 19.6762L62.1598 19.8695L62.3538 20.1112L62.4981 20.4012L62.5465 20.6429V20.7879L62.5948 20.8363V21.2237L62.6431 21.3203V21.707L62.5948 21.8521V22.1427L62.5465 22.2394V22.3844L62.4981 22.4811V22.5778L62.4498 22.6745L62.4028 22.8195L62.3544 22.9162L62.3061 23.0128L62.2578 23.1095L62.2094 23.2545L62.1121 23.3519L62.0637 23.4485L61.9677 23.5459L61.8704 23.6426L61.773 23.7392L61.677 23.8359L61.5314 23.9326L61.3857 24.0293L61.2413 24.1259L61.144 24.1743L60.9983 24.271L60.9023 24.3193L60.7566 24.416L60.6123 24.4643L60.5149 24.5126L60.3692 24.61L60.2719 24.6583L60.1275 24.7067L60.0302 24.8033L59.9329 24.8517L59.7885 24.9L59.6912 24.9484L59.5468 25.045L59.4495 25.0934L59.3521 25.1417L59.2555 25.19L59.1104 25.2867L59.0138 25.3351L58.9171 25.3834L58.8204 25.4317L58.7237 25.5284L58.6271 25.5767L58.5304 25.6251L58.4391 25.7177L58.3417 25.7661L58.2451 25.8151L58.1967 25.9118L58.1 25.9594L58.0034 26.0568L57.81 26.2025L57.6167 26.3468L57.4233 26.4441L57.23 26.5415L56.9883 26.6375H56.6499L56.1665 26.5415L55.6832 26.1548L55.5381 25.6231V25.2344L55.6348 24.9927L55.6832 24.896H55.6348L55.4898 24.9443H55.3448L55.2481 24.9927L55.1031 25.041L54.9581 25.0893L54.8131 25.1377H54.6681L54.523 25.186L54.378 25.2344L54.233 25.2827L54.1357 25.331L53.9907 25.3794L53.8456 25.4277L53.7006 25.476H53.6053L53.4603 25.5244L53.3636 25.5727L53.2669 25.6211L53.1219 25.6694L53.0252 25.7177L52.8802 25.7661L52.6869 25.8151L52.5419 25.8627L52.3969 25.9594L52.2035 26.0078L52.0102 26.1051L51.8651 26.2025L51.6718 26.2508L51.4784 26.3468L51.3334 26.4441L51.1401 26.5415L50.9467 26.6375L50.8017 26.7348L50.6567 26.7832L50.5117 26.8805L50.3667 26.9765L50.2216 27.0739L50.125 27.1712H50.4633L50.5117 27.2196H51.3824L51.4791 27.2679H52.2525L52.4459 27.3162H53.1226L53.3643 27.3632H53.5576L53.7993 27.4116H54.041L54.2827 27.4599H54.5244L54.7177 27.5082L54.9588 27.5566H55.2004L55.4421 27.6049L55.6838 27.6533L55.9255 27.7003L56.1672 27.7486L56.3606 27.7969L56.6022 27.8453L56.8439 27.8936L57.0849 27.991L57.3266 28.0379L57.52 28.1353L57.7617 28.1836L58.0034 28.281L58.1967 28.3783L58.4384 28.4743L58.6318 28.5717L58.8734 28.669L59.1151 28.765L59.3085 28.9107L59.5508 29.0564L59.7435 29.2007L59.9362 29.3948L60.1302 29.5874L60.2746 29.7331L60.4203 29.9258L60.5659 30.1668L60.6619 30.3608L60.7593 30.5535L60.8076 30.7959L60.856 30.8919L60.7586 30.4092L61.2427 29.7808L61.387 29.5868L61.5327 29.3941L61.7254 29.2001L61.8711 29.0074L62.0168 28.8134L62.1611 28.5724L62.3068 28.3797L62.4511 28.1856L62.5968 27.9446L62.7425 27.7506L62.9352 27.5579L63.0809 27.3169L63.2252 27.1229L63.3709 26.9302L63.5152 26.6878L63.6126 26.4952L63.7583 26.3011L63.9026 26.0601L64.0483 25.8668L64.1926 25.6251L64.3383 25.4317L64.484 25.19L64.6283 24.9967L64.774 24.755L64.9184 24.5617L65.0157 24.32L65.1614 24.1266L65.3057 23.8849L65.4514 23.6916L65.5958 23.4499L65.7414 23.2082L65.8388 23.0632L65.8871 22.9665L65.9831 22.8698L66.0315 22.7732L66.1288 22.6765L66.1772 22.5315L66.2732 22.4348L66.3705 22.3381L66.4679 22.2414L66.5162 22.1448L66.6135 22.0481L66.7095 21.9514L66.8069 21.8541L66.9042 21.7574L67.0002 21.6607L67.0976 21.564L67.1949 21.4674L67.3393 21.3707L67.4366 21.274L67.5823 21.1767L67.6797 21.1283L67.824 21.0317L67.9697 20.9833L68.0657 20.8866L68.2114 20.8383L68.3571 20.7416L68.5014 20.6933L68.6471 20.6449L68.8398 20.5966H68.9855L69.1298 20.5483L69.3238 20.4999H69.5165L69.7589 20.4516L69.9999 20.4999L70.2899 20.5966L70.5799 20.79L70.8223 21.0317L71.015 21.3217L71.0633 21.6117L71.1116 21.8527L71.0633 22.0944L71.015 22.2394L70.9666 22.4328L70.9183 22.5778L70.8713 22.7228L70.823 22.8678L70.7256 23.0128L70.6773 23.1095L70.5799 23.2545L70.5329 23.3995L70.4356 23.4962L70.3873 23.5929L70.2899 23.7379L70.2416 23.8346H70.1932L70.3389 23.7862L70.4846 23.6896L70.6773 23.6412L70.823 23.5445L71.0156 23.4962L71.1613 23.4479L71.354 23.3995L71.548 23.3512H72.2241L72.5141 23.4479L72.7551 23.5929L72.9961 23.7862L73.1902 23.9796L73.3345 24.2696L73.4319 24.5113L73.4802 24.753L73.5285 24.9463V25.2847L73.5769 25.4781L73.5285 25.6714V26.0091L73.4802 26.1064L73.5775 26.0091L73.7219 25.7674L73.8676 25.5257L74.0133 25.284L74.1576 25.0423L74.3516 24.849L74.496 24.608L74.69 24.3663L74.931 24.1246L75.1237 23.9312L75.3177 23.6896L75.5587 23.4962L75.7527 23.3029L75.9938 23.1095L76.2348 22.9162L76.4771 22.7228L76.7672 22.5295L77.0082 22.3844L77.2982 22.2394L77.5406 22.0944L77.8306 21.9494L78.1206 21.8521L78.4107 21.7554L78.7007 21.6587L78.9921 21.6104L79.3304 21.562L79.6204 21.5137H79.9588L80.2878 21.5607ZM91.3088 22.9141V23.0592L91.2605 23.1558L91.2121 23.3008L91.1638 23.4459L91.1154 23.5432L91.0671 23.6399L90.9711 23.7366L90.9228 23.8332L90.8744 23.9299L90.8261 24.0266L90.7287 24.1233L90.6804 24.1716L90.6307 24.2676L90.5347 24.3159L90.4864 24.4126L90.438 24.461L90.3897 24.5576L90.3414 24.606L90.2454 24.7026L90.197 24.751V24.7993L90.1487 24.8477L90.1004 24.896L90.003 24.9927L89.9547 25.0893L89.9077 25.2344L89.8103 25.331L89.762 25.4277L89.6646 25.5727L89.5673 25.7177L89.5203 25.8151L89.472 25.9594L89.4236 26.0078L89.472 25.9594L89.568 25.9118L89.6163 25.8634L89.7137 25.8158L89.762 25.7667L89.8593 25.6701L89.9553 25.6217L90.0527 25.5251L90.101 25.4767L90.1984 25.38L90.2944 25.2834L90.3917 25.235L90.4891 25.1383L90.5864 25.041L90.6824 24.9443L90.7798 24.847L90.8771 24.7986L90.9254 24.702L91.0215 24.6053L91.0698 24.557L91.1671 24.4603L91.2645 24.3636L91.3128 24.2669L91.4088 24.1703L91.5062 24.0736L91.5545 23.9762L91.6519 23.8796L91.7479 23.7822L91.8452 23.6372L91.8935 23.5405L91.9909 23.3955L92.0869 23.2988L92.1842 23.1538L92.2816 23.0088L92.0876 23.0571H91.8466L91.4115 22.9605L91.3088 22.9141ZM0.580054 42.3943H5.70386C6.71896 42.3943 7.44402 42.3943 7.97574 42.4916C8.45912 42.5386 8.89416 42.6843 9.28086 42.877C9.7159 43.071 10.0059 43.312 10.296 43.6504C10.5376 43.9888 10.6827 44.3755 10.6827 44.7622C10.6827 45.1972 10.5376 45.6329 10.1993 46.0196C9.82988 46.3859 9.38426 46.6663 8.89416 46.8407C9.66756 47.0347 10.2476 47.2757 10.6827 47.7114C11.1177 48.1451 11.311 48.5809 11.311 49.1616C11.311 49.5483 11.166 49.9827 10.9243 50.4177C10.6251 50.8136 10.2464 51.1427 9.81258 51.3838C9.3292 51.6261 8.74915 51.7705 8.07242 51.8188C7.68571 51.8671 6.91231 51.8672 5.65552 51.9162H0.580054V42.3943ZM23.4915 48.1451H25.2317L23.4915 44.6178L21.7513 48.1451H23.4915ZM24.8933 42.3943L30.0171 51.9168H27.2135L26.1017 49.7416H20.9779L19.9145 51.9168H17.1593L22.1864 42.3943H24.8933ZM36.3977 51.9168V42.3943H38.9113L44.1318 48.7265V42.3943H46.5486V51.9168H43.9384L38.7663 45.6819V51.9168H36.3977ZM54.282 51.9168V42.3943H56.8439L62.0637 48.7265V42.3943H64.433V51.9168H61.8711L56.6989 45.6819V51.9168H54.282ZM72.167 51.9168V42.3943H81.6896V43.9888H74.7296V46.1156H81.1572V47.7114H74.7296V50.272H81.8822V51.9162H72.167V51.9168ZM89.0362 42.3943H91.6472V47.5658C91.6472 48.3392 91.6942 48.8702 91.7432 49.1132C91.8405 49.4999 92.1299 49.8383 92.5166 50.0793C92.9516 50.272 93.5317 50.4177 94.2567 50.4177C94.9818 50.4177 95.5142 50.3203 95.9009 50.0793C96.2876 49.8867 96.4803 49.5953 96.5776 49.2569C96.6736 48.9185 96.6736 48.3875 96.6736 47.6624V42.3936H99.2845V47.3724C99.2845 48.5318 99.1872 49.3052 99.0919 49.7893C98.9462 50.272 98.7052 50.6587 98.3185 50.9971C97.9318 51.3354 97.3994 51.5778 96.82 51.7705C96.1432 51.9645 95.3215 52.0605 94.3064 52.0605C93.0986 52.0605 92.1796 51.9645 91.5512 51.7221C91.0102 51.5547 90.503 51.2933 90.0527 50.9501C89.666 50.6117 89.4243 50.225 89.3276 49.8866C89.1349 49.3059 89.0376 48.5318 89.0376 47.4698V42.3943H89.0362ZM105.664 51.9168L110.064 46.938L106.1 42.3943H109.096L111.658 45.4389L114.172 42.3943H117.168L113.206 47.0347L117.556 51.9162H114.463L111.611 48.5802L108.807 51.9162H105.664V51.9168ZM5.65552 43.9404H3.1903V46.164H5.65552C6.23558 46.164 6.57394 46.164 6.76729 46.1156C7.20233 46.1156 7.5407 45.9713 7.78239 45.7773C8.07242 45.5846 8.16909 45.3422 8.16909 45.0522C8.16909 44.7622 8.07242 44.5211 7.83073 44.3271C7.63737 44.1344 7.29901 44.0371 6.86464 43.9888C6.67062 43.9888 6.28392 43.9888 5.65552 43.9404ZM5.65552 47.7598H3.1903V50.272H5.65552C6.57394 50.272 7.10566 50.272 7.34735 50.225C7.73405 50.1767 8.02408 50.0793 8.26577 49.8383C8.50746 49.6443 8.65247 49.3543 8.65247 49.0649C8.65247 48.7756 8.55579 48.5325 8.36244 48.3398C8.16909 48.1458 7.92807 48.0015 7.5407 47.8558C7.25067 47.8068 6.62228 47.7598 5.65552 47.7598Z" fill="white"/>
<path fill-rule="evenodd" clip-rule="evenodd" d="M58.0041 31.4706C56.8923 30.2615 54.5727 30.1171 53.0736 30.1648C51.1401 30.2622 49.2066 30.0205 47.4181 29.5364C46.2096 29.0537 46.3546 27.5552 46.5963 26.4918C47.1281 24.2199 48.9165 23.2048 50.8984 22.3348C52.6386 21.513 54.6687 20.9336 56.989 20.4979C57.6174 20.4012 61.2917 19.6762 61.4844 20.8846C61.6301 21.5614 61.5817 22.5764 60.905 23.0598C59.7442 23.7849 58.3424 24.2683 57.279 25.235C56.5539 25.8158 56.4089 25.5251 56.989 24.8C57.3368 24.4477 57.7263 24.1392 58.1491 23.8816C58.5841 23.5915 58.8258 23.3982 58.8258 23.3015C58.8258 23.2048 58.5358 23.2048 57.9074 23.3015C56.2818 23.5724 54.6812 23.9765 53.1219 24.51C52.1068 24.8967 48.4815 26.1541 48.6749 27.6996C48.7232 27.9419 48.9649 28.1346 49.3033 28.1836C49.69 28.232 50.5117 28.281 51.7685 28.3293C53.9437 28.4253 56.6023 28.6677 58.5841 29.7311C60.5176 30.8415 60.0342 32.7757 58.7775 34.1775C57.2307 35.8694 54.5721 36.5944 52.4452 37.2221C50.27 37.8519 47.8048 38.3339 45.5329 38.1412C44.4695 38.0439 43.8894 37.7062 43.7927 37.1751C43.7444 36.9811 43.8894 36.5944 44.1311 36.0144C44.5661 35.0483 45.3395 34.6126 46.3063 34.3716C46.403 34.3232 47.2247 34.3232 46.7897 34.5159C46.5963 34.7099 45.8713 34.9026 45.8713 35.1443C45.9196 35.29 46.9347 35.2416 48.8682 34.9033C51.9142 34.4179 55.7322 33.8385 58.0041 31.4706ZM103.489 20.2079C103.006 20.8363 101.894 22.1407 100.25 24.0266C101.313 24.0266 101.797 24.4133 102.523 25.1384C105.084 23.7359 104.117 22.1407 103.489 20.2079ZM79.6594 24.3159C78.596 25.0893 77.4842 25.9111 76.5651 26.9269C76.2267 27.3136 76.0341 27.6989 75.9367 28.0373C75.8394 29.2947 75.55 30.3582 77.2902 30.0681C77.7252 30.0198 78.3536 29.6331 79.2244 28.859C78.1609 27.5062 78.9827 25.6211 79.6594 24.3159ZM61.9194 30.6965C63.6596 28.5213 65.2057 26.1528 66.6559 23.7842C67.3809 22.6725 68.106 21.8024 69.4608 21.5607C70.8626 21.319 69.0741 23.5425 68.8801 23.7842C67.7193 25.186 66.9472 26.8785 66.2691 28.5697C67.2497 27.5825 68.2656 26.6312 69.3151 25.7177C69.7501 25.3794 72.2154 23.5425 72.4081 24.9443C72.6491 26.3945 71.8287 27.7473 70.9579 28.8107C70.4269 29.5841 69.7501 30.3582 68.9284 31.2759C70.9579 31.4216 72.5537 29.9715 73.8589 28.5697C73.8589 28.1346 73.9562 27.6989 74.1972 27.1195C75.068 25.041 77.9199 22.1407 80.3838 22.6725C80.9645 22.8175 80.9162 23.2525 80.5778 23.6875C82.6563 23.6875 81.5439 26.8778 81.0619 27.8929L81.5929 27.9903C82.6563 27.7963 83.5271 26.5401 83.9608 25.6211C81.9796 25.4277 83.3814 23.1558 84.0581 22.3341C84.5905 21.609 86.379 20.4006 85.4599 22.3341C87.3458 21.754 88.6019 21.4157 89.0853 21.319C89.5203 21.2707 89.762 21.319 90.003 21.754C90.6314 22.7691 90.0514 23.2518 89.3746 24.0742C88.8906 24.6543 86.8611 27.7956 88.9879 27.4579C89.5203 27.3605 90.3897 26.7328 91.5498 25.6211C92.4192 24.751 93.4357 23.3008 94.5461 21.3673C93.9177 21.3673 93.049 21.5607 92.4676 21.754C92.4192 21.8024 91.8882 22.0924 91.8882 21.9474C91.8399 21.6574 91.9855 21.2223 92.2749 20.6423C93.0973 18.8054 94.4501 18.7088 96.2876 18.4187C96.7703 17.307 97.3497 16.0985 98.7045 15.9052C99.8639 15.7118 99.5256 16.2435 99.0429 16.9203C98.7045 17.4036 98.4131 17.7903 98.3178 18.1287C98.8005 18.0804 99.2839 18.032 99.7679 18.032C99.3812 18.9504 98.8488 19.9172 98.1721 20.9323C97.4954 21.029 96.8677 21.0773 96.2393 21.1256C95.5142 22.5758 94.4508 24.461 94.6435 26.1528C95.1275 28.328 98.5588 24.702 98.9939 24.2669C101.072 21.7534 102.474 19.9649 103.248 18.9504C103.296 17.9353 103.73 17.4036 104.552 17.2586C105.325 17.1136 105.229 17.3553 105.325 17.9353C105.422 18.5154 105.954 19.0955 106.195 19.6755C107.404 21.9474 105.035 24.2193 103.44 25.427C105.422 25.427 106.824 24.0252 108.177 22.7201L108.322 23.4935C106.486 25.6204 103.537 28.81 100.444 26.9262C99.6706 26.4911 99.3322 25.9588 99.1382 25.137C98.3171 26.1521 94.9328 30.6475 92.9516 29.2457C91.7908 28.2796 92.6133 26.3455 92.9033 25.1853C91.5498 26.5395 90.4381 28.279 88.9396 29.3914C87.1041 30.8402 85.6533 29.1 86.2333 27.1679C86.5717 26.0071 87.2968 24.896 88.0218 23.8809C87.1041 24.1709 86.136 24.4126 85.2666 24.7993C84.4442 26.8295 82.6073 29.1007 80.3361 29.3921C79.321 30.7939 77.7252 32.3884 75.84 31.5659C74.9706 31.1792 74.2456 30.3582 74.0045 29.4404C72.3604 31.0832 70.3792 33.6928 67.72 33.3074C67.2373 33.2591 66.7539 33.1134 66.2698 33.1134C65.6904 33.3544 65.2064 33.3544 64.578 33.1618C63.8046 35.0476 63.6119 37.2215 62.4511 38.914C61.9201 39.4933 61.3877 39.3477 61.2434 38.4789C60.8567 36.158 62.6452 33.9352 63.6603 32.0016C64.772 29.5848 65.6414 27.5552 66.2222 25.9118C65.6898 26.6355 62.3068 32.8234 61.9194 30.6965ZM67.9616 31.1322C68.1543 30.8899 71.587 26.5885 69.6045 26.8785C69.1204 26.9745 68.4927 27.4096 67.7676 28.183C66.9942 29.0054 66.2692 30.0198 65.5448 31.2759C66.4632 31.0349 67.0426 30.8892 67.9616 31.1322Z" fill="white"/>
</svg>
