<svg width="152" height="43" viewBox="0 0 152 43" fill="none" xmlns="http://www.w3.org/2000/svg">
<path fill-rule="evenodd" clip-rule="evenodd" d="M1.18334 18.1941V24.2387H26.7383C35.5371 24.2387 35.7768 9.87537 26.7383 9.87537H8.30531C6.14499 9.87537 6.14499 7.72075 8.30531 7.72075H32.2434V1.6769H6.68934C-2.10954 1.6769 -2.34921 16.0403 6.68934 16.0403H25.1223C27.2826 16.0403 27.2826 18.1949 25.1223 18.1949H1.18334V18.1941ZM63.843 18.1941V24.4776H43.7941C36.1863 24.4776 33.9195 19.5704 33.9195 12.8075C33.9195 6.04466 36.1863 1.13744 43.7941 1.13744H63.843V7.42095H43.7941C41.8345 7.42095 40.6223 9.57558 40.6223 12.8067C40.6223 16.0387 41.8345 18.1933 43.7941 18.1933H63.843V18.1941ZM63.843 12.8075C63.843 18.1941 65.762 25.3152 80.4804 25.3152C94.4839 25.3152 96.0999 18.1941 95.9804 12.8075C96.0991 7.42176 94.4839 0.299792 80.4804 0.299792C65.762 0.299792 63.843 7.42095 63.843 12.8075ZM89.636 12.8075C89.636 16.0395 89.636 19.6923 80.4796 19.6898C70.545 19.6882 70.545 16.0395 70.545 12.8075C70.545 9.57558 70.545 5.92766 80.4796 5.92522C89.636 5.9236 89.636 9.57558 89.636 12.8075ZM106.274 24.4776H113.696V7.42095H123.748V0H96.2201V7.42095H106.274V24.4776ZM134.521 24.4776H141.943V7.42095H151.997V0H124.467V7.42095H134.521V24.4776Z" fill="white"/>
<path fill-rule="evenodd" clip-rule="evenodd" d="M61.1269 32.5876H54.6866L53.9538 35.8309H60.3941C60.9352 35.8309 61.3422 35.7058 61.6152 35.4515C61.889 35.1989 62.1019 34.7431 62.2505 34.0834C62.3683 33.5609 62.3375 33.1807 62.1612 32.9435C61.9824 32.7071 61.6379 32.5876 61.1269 32.5876ZM62.0255 29.2834C64.1281 29.2834 65.4906 29.5962 66.1089 30.2185C66.7272 30.8433 66.8515 31.9791 66.4785 33.63C66.2194 34.7772 65.8586 35.6278 65.3923 36.186C64.9284 36.745 64.276 37.1187 63.4375 37.308C64.0997 37.4745 64.5603 37.7686 64.8163 38.1911C65.0697 38.6136 65.1217 39.1596 64.9706 39.8315L64.3572 42.5483H60.3023L60.7589 40.5253C60.8767 40.0021 60.8344 39.6446 60.6321 39.4488C60.4298 39.253 59.9667 39.1547 59.2436 39.1547H53.2014L52.4353 42.5491H48.3738L51.3693 29.2842H62.0255V29.2834ZM74.1847 37.1487H79.2796L77.766 32.456L74.1847 37.1487ZM70.1411 42.5483H65.7213L75.9607 29.2834H81.1287L85.2413 42.5483H80.7964L80.0108 40.3376H71.9301L70.1411 42.5483ZM100.864 34.0655L100.894 33.9306C101.012 33.4155 100.926 33.0361 100.641 32.7956C100.352 32.5559 99.8379 32.4357 99.0953 32.4357H95.8536C94.4635 32.4357 93.5349 32.6039 93.0637 32.9394C92.5941 33.275 92.2366 33.9769 91.9945 35.0469L91.5785 36.892C91.3624 37.8483 91.4339 38.5023 91.793 38.8606C92.1529 39.2164 92.9816 39.3944 94.2807 39.3944H96.6328C97.9213 39.3944 98.7971 39.2644 99.2546 39.006C99.7144 38.7485 100.024 38.2699 100.182 37.5672L100.215 37.4258H104.322C104.319 37.4437 104.312 37.4762 104.309 37.5241C104.239 37.9092 104.184 38.1968 104.141 38.3877C103.949 39.2368 103.684 39.9363 103.344 40.4904C103.02 41.0283 102.573 41.4825 102.04 41.8163C101.531 42.138 100.903 42.3663 100.152 42.5028C99.3984 42.6393 98.3243 42.7084 96.9277 42.7084H92.4039C91.0187 42.7084 90.0186 42.6328 89.3987 42.4849C88.7796 42.3363 88.2767 42.086 87.894 41.7277C87.4591 41.3134 87.1724 40.7676 87.0783 40.1743C86.9719 39.5585 87.0279 38.7834 87.2384 37.8458L88.0557 34.2263C88.4855 32.3268 89.2362 31.0009 90.3086 30.2486C91.3811 29.4979 93.1018 29.1217 95.4718 29.1217H99.9955C101.451 29.1217 102.508 29.1875 103.167 29.3175C103.826 29.4475 104.321 29.6693 104.649 29.9772C104.999 30.2989 105.211 30.7304 105.287 31.2731C105.363 31.8182 105.307 32.4975 105.124 33.3188C105.079 33.5146 105.044 33.6658 105.017 33.7681C104.99 33.8737 104.962 33.9712 104.929 34.0671H100.864V34.0655ZM109.638 42.5483H105.585L108.582 29.2834H112.634L109.638 42.5483ZM130.458 42.5483H124.523L118.748 32.9004L116.569 42.5483H112.525L115.521 29.2834H121.517L127.221 39.0109L129.417 29.2834H133.454L130.458 42.5483ZM147.552 34.0655L147.561 34.0289C147.7 33.418 147.609 32.9979 147.293 32.7721C146.974 32.5462 146.17 32.4349 144.873 32.4349H142.514C141.128 32.4349 140.205 32.6014 139.742 32.9337C139.277 33.2668 138.924 33.9688 138.68 35.0461L138.264 36.8896C138.048 37.8475 138.119 38.5015 138.478 38.8598C138.838 39.2156 139.665 39.3936 140.96 39.3936H143.303C144.466 39.3936 145.292 39.2888 145.78 39.0759C146.266 38.8663 146.57 38.5015 146.686 37.9856C146.702 37.9149 146.717 37.7946 146.73 37.6297C146.733 37.6142 146.736 37.5987 146.74 37.5834H141.973L142.579 34.9015H151.561L150.577 39.2571C150.295 40.5042 149.635 41.3922 148.592 41.9162C147.55 42.4427 145.88 42.7059 143.588 42.7059H139.081C137.697 42.7059 136.693 42.6304 136.068 42.4825C135.441 42.3338 134.939 42.0836 134.563 41.7253C134.128 41.3111 133.841 40.7652 133.747 40.1719C133.641 39.556 133.697 38.781 133.907 37.841L134.725 34.2239C135.154 32.3244 135.904 30.9968 136.974 30.2461C138.041 29.4954 139.762 29.1193 142.133 29.1193H146.656C148.118 29.1193 149.182 29.1851 149.846 29.3151C150.512 29.4451 151.011 29.6669 151.338 29.9748C151.681 30.2965 151.89 30.7279 151.966 31.2706C152.044 31.8134 151.988 32.495 151.802 33.3164C151.759 33.5098 151.724 33.6633 151.696 33.7706C151.672 33.8693 151.645 33.9674 151.615 34.0647H147.552V34.0655Z" fill="#EEEEEE"/>
<path fill-rule="evenodd" clip-rule="evenodd" d="M12.8991 34.0655V34.0289C12.8991 33.418 12.7138 32.9979 12.3466 32.7721C11.9769 32.5462 11.1466 32.4349 9.85156 32.4349H7.49057C6.10615 32.4349 5.21976 32.6014 4.83141 32.9337C4.44143 33.2668 4.24807 33.9688 4.24807 35.0461V36.8896C4.24807 37.8475 4.46743 38.5015 4.90697 38.8598C5.34732 39.2156 6.2142 39.3936 7.50926 39.3936H9.85156C11.015 39.3936 11.8169 39.2888 12.2572 39.0759C12.6951 38.8663 12.9169 38.5015 12.9169 37.9856C12.9128 37.8663 12.9006 37.7474 12.8804 37.6297V37.5834H8.11372V34.9015H17.0954V39.2571C17.0954 40.5042 16.6347 41.3922 15.711 41.9162C14.7872 42.4427 13.1769 42.7059 10.885 42.7059H6.37832C4.9939 42.7059 3.97265 42.6304 3.31293 42.4825C2.65403 42.3338 2.09506 42.0836 1.63847 41.7253C1.11728 41.3213 0.714081 40.7849 0.47097 40.1719C0.227234 39.556 0.106178 38.781 0.106178 37.841V34.2239C0.106178 32.3244 0.555465 30.9968 1.45648 30.2461C2.35505 29.4954 3.99052 29.1193 6.36045 29.1193H10.885C12.3466 29.1193 13.4255 29.1851 14.1194 29.3151C14.8148 29.4451 15.3624 29.6669 15.7589 29.9748C16.1741 30.2965 16.482 30.7279 16.6802 31.2706C16.8809 31.8134 16.9792 32.495 16.9792 33.3164C16.9792 33.5098 16.9792 33.6633 16.9743 33.7706C16.973 33.8687 16.9684 33.9668 16.9605 34.0647H12.8991V34.0655ZM29.9549 32.5535H23.6007V39.3229H30.4635C31.3255 39.3229 31.9544 39.1466 32.3517 38.798C32.7506 38.4462 32.9488 37.897 32.9488 37.1487V34.8162C32.9488 34.0387 32.7067 33.4659 32.2233 33.1011C31.7374 32.7363 30.9827 32.5535 29.9549 32.5535ZM31.1931 29.2834C33.2185 29.2834 34.6915 29.6392 35.6128 30.3493C36.5317 31.0578 36.9924 32.1895 36.9924 33.7381V38.2992C36.9924 39.7722 36.6252 40.8495 35.8883 41.5287C35.1514 42.2087 33.9814 42.5491 32.3785 42.5491H19.5563V29.2842H31.1931V29.2834Z" fill="#F2CA30"/>
</svg>
