<svg width="166" height="166" viewBox="0 0 166 166" fill="none" xmlns="http://www.w3.org/2000/svg">
<g opacity="0.15">
<path d="M83 166C128.84 166 166 128.84 166 83C166 37.1604 128.84 0 83 0C37.1604 0 0 37.1604 0 83C0 128.84 37.1604 166 83 166Z" fill="#32BA7C"/>
<path d="M61.7917 120.442L104.47 163.12C139.817 153.694 166 121.489 166 83.0001C166 82.2146 166 81.4291 166 80.6436L132.486 49.7477L61.7917 120.442Z" fill="#0AA06E"/>
<path d="M85.0943 101.59C88.7599 105.256 88.7599 111.539 85.0943 115.205L77.5012 122.798C73.8356 126.464 67.5517 126.464 63.8861 122.798L30.6337 89.2839C26.9681 85.6183 26.9681 79.3344 30.6337 75.6688L38.2268 68.0757C41.8924 64.4101 48.1763 64.4101 51.8419 68.0757L85.0943 101.59Z" fill="white"/>
<path d="M114.157 43.7255C117.823 40.0599 124.107 40.0599 127.772 43.7255L135.366 51.3186C139.031 54.9842 139.031 61.2681 135.366 64.9337L77.763 122.274C74.0974 125.94 67.8135 125.94 64.1479 122.274L56.5548 114.681C52.8892 111.016 52.8892 104.732 56.5548 101.066L114.157 43.7255Z" fill="white"/>
</g>
</svg>
