<svg width="85" height="85" viewBox="0 0 85 85" fill="none" xmlns="http://www.w3.org/2000/svg">
<g clip-path="url(#clip0_2_234)">
<path d="M60.2618 54.9297C55.0417 58.9991 51.405 64.8821 50.0409 71.3527C49.8078 72.4745 48.7369 73.223 47.6037 73.0772L29.9948 70.8119C28.8615 70.6661 28.0149 69.671 28.0734 68.5267C28.3914 61.9215 26.3622 55.3096 22.342 50.0515C21.6906 49.2589 21.7114 48.0651 22.3901 47.2663L42.7729 23.8357L44.2533 27.4823L44.5597 27.1671L47.1315 24.3964L60.9201 52.223C61.3748 53.1677 61.0927 54.3278 60.2618 54.9297Z" fill="#FFDA45"/>
<path d="M60.2619 54.9298C55.0418 58.9991 51.4051 64.8822 50.041 71.3528C49.8079 72.4745 48.737 73.223 47.6038 73.0772L38.7994 71.9446L44.5598 27.1671L47.1316 24.3964L60.9202 52.2231C61.3749 53.1677 61.0928 54.3279 60.2619 54.9298Z" fill="#FFBC36"/>
<path d="M43.8757 66.9264L35.1585 65.805C29.1436 65.0312 23.634 69.2848 22.8602 75.2997C22.7032 76.52 23.5386 77.6024 24.7591 77.7594L50.9108 81.1237C52.1313 81.2807 53.2135 80.445 53.3705 79.2247C54.1442 73.2098 49.8906 67.7002 43.8757 66.9264Z" fill="#BF6015"/>
<path d="M53.3705 79.2248C53.2135 80.445 52.1313 81.2807 50.9108 81.1237L37.835 79.4416L39.5171 66.3657L43.8757 66.9264C49.8906 67.7002 54.1442 73.2099 53.3705 79.2248Z" fill="#994C10"/>
<path d="M74.8944 15.2371C74.7374 16.4574 73.6553 17.2931 72.4347 17.136L20.1314 10.4075C18.9108 10.2504 18.0755 9.16807 18.2324 7.9478C18.3895 6.72724 19.4715 5.89183 20.6921 6.04885L72.9955 12.7774C74.216 12.9344 75.0514 14.0165 74.8944 15.2371Z" fill="#1689FC"/>
<path d="M74.8944 15.2371C74.7374 16.4574 73.6553 17.2931 72.4347 17.136L46.2831 13.7718L46.8438 9.41315L72.9955 12.7774C74.216 12.9345 75.0514 14.0165 74.8944 15.2371Z" fill="#136EF1"/>
<path d="M16.7671 36.5591C15.5625 36.4042 14.7132 35.3041 14.8681 34.0995C16.6565 20.1978 28.1051 9.72417 42.0903 9.19759C43.2986 9.13888 44.3217 10.0991 44.3693 11.3102C44.4144 12.5232 43.4696 13.5439 42.2567 13.5892C30.4256 14.0359 20.74 22.8975 19.2268 34.6602C19.0718 35.8648 17.9717 36.7141 16.7671 36.5591Z" fill="#1689FC"/>
<path d="M69.0704 43.2877C67.8658 43.1327 67.0165 42.0326 67.1715 40.828C68.6847 29.0653 61.5573 18.0408 50.2246 14.6142C49.0625 14.2636 48.4068 13.0368 48.7576 11.8747C49.108 10.7148 50.3348 10.0418 51.4971 10.4077C64.8935 14.4568 73.3184 27.4871 71.5301 41.3888C71.3751 42.5933 70.275 43.4427 69.0704 43.2877Z" fill="#136EF1"/>
<path d="M15.6457 45.2764C12.0405 44.8126 9.48503 41.5026 9.94882 37.8974C10.4126 34.2923 13.7227 31.7368 17.3278 32.2006C20.933 32.6644 23.4884 35.9744 23.0247 39.5796C22.5609 43.1847 19.2508 45.7402 15.6457 45.2764Z" fill="#00C8C8"/>
<path d="M16.2064 40.9178C15.0047 40.7632 14.1528 39.6598 14.3074 38.4581C14.462 37.2564 15.5654 36.4046 16.7671 36.5592C17.9688 36.7138 18.8206 37.8172 18.666 39.0188C18.5115 40.2205 17.408 41.0724 16.2064 40.9178Z" fill="#E1F1FA"/>
<path d="M67.949 52.005C64.3439 51.5412 61.7884 48.2311 62.2522 44.626C62.716 41.0208 66.026 38.4654 69.6312 38.9291C73.2363 39.3929 75.7918 42.703 75.328 46.3081C74.8642 49.9133 71.5542 52.4688 67.949 52.005Z" fill="#00A1B2"/>
<path d="M68.5097 47.6464C67.3081 47.4918 66.4562 46.3884 66.6108 45.1867C66.7654 43.985 67.8688 43.1332 69.0704 43.2877C70.2721 43.4423 71.124 44.5457 70.9694 45.7474C70.8148 46.9491 69.7114 47.8009 68.5097 47.6464Z" fill="#BFE1FF"/>
<path d="M47.4045 5.05457C43.7867 4.58916 40.4909 7.13363 40.0255 10.7514C39.5601 14.3689 42.1046 17.665 45.7223 18.1304C49.3401 18.5958 52.636 16.0511 53.1013 12.4336C53.5667 8.81577 51.0223 5.51999 47.4045 5.05457Z" fill="#00C8C8"/>
<path d="M19.4254 14.7474L10.7082 13.626C9.50358 13.471 8.65424 12.3709 8.80921 11.1663L9.93064 2.44908C10.0856 1.24451 11.1857 0.39517 12.3903 0.550133L21.1075 1.67156C22.3121 1.82653 23.1614 2.92665 23.0065 4.13123L21.885 12.8485C21.7301 14.053 20.63 14.9024 19.4254 14.7474Z" fill="#00C8C8"/>
<path d="M18.3675 5.7498L14.0089 5.18909L13.4482 9.5477L17.8068 10.1084L18.3675 5.7498Z" fill="#E1F1FA"/>
<path d="M80.7365 22.6348L72.0193 21.5134C70.8147 21.3584 69.9654 20.2583 70.1204 19.0537L71.2418 10.3365C71.3968 9.1319 72.4969 8.28256 73.7015 8.43752L82.4187 9.55895C83.6233 9.71392 84.4726 10.814 84.3176 12.0186L83.1962 20.7358C83.0412 21.9404 81.9411 22.7898 80.7365 22.6348Z" fill="#00A1B2"/>
<path d="M79.6787 13.6372L75.32 13.0765L74.7593 17.4351L79.1179 17.9958L79.6787 13.6372Z" fill="#BFE1FF"/>
<path d="M42.3394 44.4273C38.7216 43.9619 35.4258 46.5064 34.9604 50.1242C34.495 53.7417 37.0394 57.0377 40.6572 57.5032C44.275 57.9686 47.5708 55.4238 48.0362 51.8063C48.5016 48.1885 45.9572 44.8927 42.3394 44.4273Z" fill="#994C0F"/>
<path d="M47.1316 24.3964L44.2383 46.887C44.0813 48.1072 42.9992 48.9429 41.7787 48.7859C40.5581 48.6289 39.7227 47.5465 39.8797 46.3262L42.773 23.8357L43.1891 23.3575C43.7033 22.8033 44.4401 22.5881 45.1373 22.6778C45.8346 22.7675 46.4929 23.1621 46.8501 23.8285L47.1316 24.3964Z" fill="#994C0F"/>
<path d="M45.7223 18.1304L47.4045 5.05457C51.0223 5.51998 53.5667 8.81576 53.1013 12.4336C52.636 16.0511 49.3401 18.5958 45.7223 18.1304Z" fill="#00A1B2"/>
<path d="M46.2831 13.7718C45.0814 13.6172 44.2295 12.5138 44.3841 11.3121C44.5387 10.1104 45.6421 9.25858 46.8438 9.41317C48.0454 9.56776 48.8973 10.6712 48.7427 11.8728C48.5881 13.0745 47.4847 13.9264 46.2831 13.7718Z" fill="#E1F1FA"/>
<path d="M48.7427 11.8728C48.8973 10.6711 48.0454 9.56774 46.8438 9.41315L46.2831 13.7718C47.4847 13.9263 48.5881 13.0745 48.7427 11.8728Z" fill="#BFE1FF"/>
<path d="M41.7787 48.7859L45.1373 22.6779C45.8346 22.7676 46.4929 23.1621 46.8501 23.8285L47.1316 24.3964L44.2383 46.887C44.0813 48.1073 42.9992 48.943 41.7787 48.7859Z" fill="#713708"/>
<path d="M48.0362 51.8064C47.5708 55.4239 44.275 57.9686 40.6572 57.5032L42.3394 44.4274C45.9572 44.8928 48.5016 48.1886 48.0362 51.8064Z" fill="#713708"/>
</g>
<defs>
<clipPath id="clip0_2_234">
<rect width="75" height="75" fill="white" transform="translate(10.211 0.269775) rotate(7.33057)"/>
</clipPath>
</defs>
</svg>
