<svg width="159" height="159" viewBox="0 0 159 159" fill="none" xmlns="http://www.w3.org/2000/svg">
<g opacity="0.15">
<path d="M0 79.4999C0 35.6256 35.5408 0.0525395 79.4029 5.71809e-05C122.897 -0.051804 158.553 35.1803 158.996 78.6726C159.255 104.153 147.525 126.905 129.101 141.632C127.971 142.535 126.379 142.557 125.196 141.724C112.269 132.628 96.5081 127.287 79.4998 127.287C62.4915 127.287 46.7313 132.628 33.8036 141.724C32.6204 142.557 31.0285 142.535 29.8985 141.632C11.6744 127.064 0 104.645 0 79.4999H0Z" fill="#0691CE"/>
<path d="M135.678 83.8475C135.678 117.738 108.205 145.211 74.3145 145.211C40.4243 145.211 12.9512 117.738 12.9512 83.8475C12.9512 49.9573 40.4246 22.4839 74.3148 22.4839C108.205 22.4839 135.678 49.9573 135.678 83.8475Z" fill="#07A9F0"/>
<path d="M133.114 34.1601V77.6366C133.114 79.3517 131.724 80.742 130.008 80.742H77.6366C75.9215 80.742 74.5312 79.3517 74.5312 77.6366V34.1601C74.5312 32.445 75.9215 31.0546 77.6366 31.0546H130.008C131.724 31.0546 133.114 32.445 133.114 34.1601Z" fill="#40C1FA"/>
<path d="M147.299 59.4608V88.8245C147.299 90.5397 145.909 91.93 144.194 91.93H105.586C103.871 91.93 102.48 90.5397 102.48 88.8245V59.4608C102.48 57.7457 103.871 56.3554 105.586 56.3554H144.194C145.909 56.3554 147.299 57.746 147.299 59.4608Z" fill="#93DCFC"/>
<path d="M110.916 64.4384C110.916 63.1521 111.958 62.1093 113.245 62.1093H136.536C137.822 62.1093 138.865 63.1521 138.865 64.4384C138.865 65.7247 137.822 66.7675 136.536 66.7675H113.245C111.958 66.7675 110.916 65.7247 110.916 64.4384ZM136.536 81.5184H113.245C111.958 81.5184 110.916 82.5612 110.916 83.8475C110.916 85.1338 111.958 86.1766 113.245 86.1766H136.536C137.822 86.1766 138.865 85.1338 138.865 83.8475C138.865 82.5612 137.822 81.5184 136.536 81.5184ZM136.536 71.8139H113.245C111.958 71.8139 110.916 72.8567 110.916 74.143C110.916 75.4292 111.958 76.4721 113.245 76.4721H136.536C137.822 76.4721 138.865 75.4292 138.865 74.143C138.865 72.8567 137.822 71.8139 136.536 71.8139Z" fill="#B4E7FD"/>
<path d="M59.0032 10.7309V37.2656C59.0032 38.9807 57.6129 40.371 55.8977 40.371H12.4821C10.767 40.371 9.37665 38.9807 9.37665 37.2656V10.7309C9.37665 9.0158 10.767 7.62549 12.4821 7.62549H55.8977C57.6129 7.62549 59.0032 9.0158 59.0032 10.7309Z" fill="#E5554E"/>
<path d="M18.1356 40.371H12.4821C10.767 40.371 9.37665 38.9807 9.37665 37.2656V10.7309C9.37665 9.0158 10.767 7.62549 12.4821 7.62549H18.1356C16.4205 7.62549 15.0301 9.0158 15.0301 10.7309V37.2656C15.0301 38.9807 16.4208 40.371 18.1356 40.371Z" fill="#CC4646"/>
<path d="M41.0644 25.8474L33.5467 32.0751C32.9939 32.5329 32.194 32.5329 31.6412 32.0751L24.1235 25.8474C21.7152 23.8522 21.3214 20.307 23.2338 17.8322C25.3719 15.065 29.4543 14.8044 31.9269 17.2773L32.5936 17.944L33.2604 17.2773C35.7333 14.8044 39.8154 15.0653 41.9535 17.8322C43.8661 20.307 43.4727 23.8522 41.0644 25.8474Z" fill="#F87B67"/>
<path d="M39.1686 148.024C35.8917 146.092 32.7657 143.93 29.8124 141.563V119.098C29.8124 107.092 39.545 97.3594 51.5507 97.3594H64.4501C52.4444 97.3594 42.7119 107.092 42.7119 119.098V146.013C42.7119 147.832 40.7347 148.948 39.1686 148.024Z" fill="#CC4646"/>
<path d="M129.187 119.098V141.563C115.577 152.474 98.3006 159 79.4998 159C64.7623 159 50.9616 154.99 39.1288 148.001V119.098C39.1288 107.092 48.8614 97.3597 60.8671 97.3597H65.2278L67.0712 99.1305H91.4574L93.7716 97.3597H107.449C119.455 97.3597 129.187 107.092 129.187 119.098Z" fill="#E5554E"/>
<path d="M79.4999 114.711C71.6176 114.711 65.2278 108.321 65.2278 100.439V97.3597H93.7716V100.439C93.7719 108.321 87.3821 114.711 79.4999 114.711ZM50.7743 129.22C49.4881 129.22 48.4453 130.263 48.4453 131.549V152.705C49.9741 153.355 51.5274 153.957 53.1034 154.512V131.549C53.1034 130.263 52.0606 129.22 50.7743 129.22ZM108.225 129.22C106.939 129.22 105.896 130.263 105.896 131.549V154.512C107.472 153.958 109.026 153.355 110.554 152.706V131.549C110.554 130.263 109.512 129.22 108.225 129.22ZM100.155 125.573H82.7606C82.246 125.573 81.829 125.99 81.829 126.505V136.342C81.829 136.649 81.9799 136.936 82.2327 137.11L90.9295 143.089C91.2475 143.308 91.6674 143.308 91.9851 143.089L100.682 137.11C100.935 136.936 101.086 136.649 101.086 136.342V126.505C101.086 125.99 100.669 125.573 100.155 125.573Z" fill="#CC4646"/>
<path d="M101.187 126.445H81.7286C80.8712 126.445 80.1758 125.75 80.1758 124.892V122.289C80.1758 121.432 80.8712 120.736 81.7286 120.736H101.187C102.045 120.736 102.74 121.432 102.74 122.289V124.892C102.74 125.75 102.045 126.445 101.187 126.445Z" fill="#F76C57"/>
<path d="M159 10.5994C159 16.4532 154.254 21.1987 148.401 21.1987H125.877L106.003 34.4478V21.199C100.149 21.199 95.404 16.4536 95.404 10.5998C95.404 4.74565 100.149 0.000198364 106.003 0.000198364H148.401C154.254 0.000198364 159 4.74565 159 10.5994Z" fill="#EAC23F"/>
<path d="M159 10.5994C159 16.4532 154.255 21.1987 148.401 21.1987H119.932C114.078 21.1987 109.332 16.4532 109.332 10.5994C109.332 4.74565 114.078 0.000198364 119.932 0.000198364H148.401C154.255 0.000198364 159 4.74565 159 10.5994Z" fill="#E9CC5A"/>
<path d="M109.902 9.94786L108.015 11.6851C107.918 11.7742 107.874 11.9071 107.899 12.0366L108.375 14.557C108.435 14.8759 108.095 15.1197 107.812 14.9604L105.577 13.7024C105.462 13.6378 105.322 13.6368 105.206 13.7002L102.956 14.9315C102.672 15.0874 102.335 14.8396 102.399 14.5213L102.905 12.0068C102.931 11.8776 102.888 11.7441 102.792 11.6537L100.926 9.89413C100.69 9.67147 100.821 9.27459 101.143 9.23733L103.691 8.94107C103.822 8.92585 103.936 8.84418 103.992 8.72524L105.089 6.4067C105.227 6.11354 105.645 6.11603 105.781 6.41074L106.85 8.74232C106.905 8.86219 107.017 8.9451 107.148 8.96187L109.692 9.28826C110.014 9.32987 110.141 9.7283 109.902 9.94786ZM120.585 9.28857L118.042 8.96218C117.911 8.94541 117.798 8.8625 117.743 8.74263L116.674 6.41105C116.539 6.11603 116.121 6.11354 115.982 6.40701L114.885 8.72555C114.829 8.8448 114.715 8.92616 114.584 8.94138L112.037 9.23764C111.714 9.27521 111.583 9.67209 111.819 9.89444L113.685 11.654C113.781 11.7444 113.824 11.8779 113.798 12.0071L113.292 14.5216C113.228 14.8396 113.565 15.0874 113.85 14.9318L116.1 13.7005C116.215 13.6371 116.355 13.6381 116.47 13.7027L118.705 14.9607C118.988 15.1197 119.328 14.8759 119.268 14.5573L118.792 12.0369C118.768 11.9074 118.812 11.7745 118.909 11.6854L120.796 9.94817C121.034 9.7283 120.907 9.32987 120.585 9.28857ZM131.479 9.28857L128.935 8.96218C128.804 8.94541 128.691 8.8625 128.636 8.74263L127.567 6.41105C127.432 6.11603 127.014 6.11354 126.875 6.40701L125.778 8.72555C125.722 8.8448 125.608 8.92616 125.478 8.94138L122.93 9.23764C122.607 9.27521 122.476 9.67209 122.712 9.89444L124.578 11.654C124.674 11.7444 124.717 11.8779 124.691 12.0071L124.185 14.5216C124.121 14.8396 124.458 15.0874 124.743 14.9318L126.993 13.7005C127.108 13.6371 127.248 13.6381 127.363 13.7027L129.598 14.9607C129.881 15.1197 130.221 14.8759 130.161 14.5573L129.685 12.0369C129.661 11.9074 129.705 11.7745 129.802 11.6854L131.689 9.94817C131.927 9.7283 131.8 9.32987 131.479 9.28857ZM142.372 9.28857L139.828 8.96218C139.697 8.94541 139.584 8.8625 139.529 8.74263L138.46 6.41105C138.325 6.11603 137.907 6.11354 137.768 6.40701L136.671 8.72555C136.615 8.8448 136.501 8.92616 136.371 8.94138L133.823 9.23764C133.5 9.27521 133.369 9.67209 133.605 9.89444L135.472 11.654C135.567 11.7444 135.61 11.8779 135.584 12.0071L135.078 14.5216C135.014 14.8396 135.351 15.0874 135.636 14.9318L137.886 13.7005C138.001 13.6371 138.141 13.6381 138.256 13.7027L140.492 14.9607C140.774 15.1197 141.114 14.8759 141.054 14.5573L140.578 12.0369C140.554 11.9074 140.598 11.7745 140.695 11.6854L142.582 9.94817C142.82 9.7283 142.693 9.32987 142.372 9.28857ZM153.265 9.28857L150.721 8.96218C150.59 8.94541 150.477 8.8625 150.422 8.74263L149.353 6.41105C149.218 6.11603 148.8 6.11354 148.661 6.40701L147.565 8.72555C147.508 8.8448 147.394 8.92616 147.264 8.94138L144.716 9.23764C144.394 9.27521 144.262 9.67209 144.498 9.89444L146.365 11.654C146.461 11.7444 146.503 11.8779 146.477 12.0071L145.971 14.5216C145.907 14.8396 146.244 15.0874 146.529 14.9318L148.779 13.7005C148.894 13.6371 149.034 13.6381 149.149 13.7027L151.385 14.9607C151.667 15.1197 152.007 14.8759 151.947 14.5573L151.471 12.0369C151.447 11.9074 151.491 11.7745 151.588 11.6854L153.475 9.94817C153.713 9.7283 153.586 9.32987 153.265 9.28857Z" fill="#FFF5F5"/>
<path d="M87.6985 79.1575C85.4039 79.605 83.0329 79.8397 80.6072 79.8397H78.3902C58.0519 79.8397 41.5644 63.3522 41.5644 43.0139C41.5644 22.6756 58.0519 6.18813 78.3902 6.18813H80.6072H80.6799C82.1584 6.19092 82.5366 8.24425 81.1631 8.79143C67.5702 14.2083 57.9637 27.4891 57.9637 43.0136C57.964 60.9269 70.7532 75.852 87.6985 79.1575Z" fill="#E9CC5A"/>
<path d="M117.434 43.0141C117.434 61.4218 103.929 76.6746 86.2861 79.4049C68.6434 76.6746 55.1378 61.4218 55.1378 43.0141C55.1378 24.6068 68.6434 9.35373 86.2861 6.62341C103.929 9.35373 117.434 24.6065 117.434 43.0141Z" fill="#F1DE96"/>
<path d="M53.1034 58.5414V61.6469C53.1034 65.9346 49.6275 69.4105 45.3398 69.4105C41.0521 69.4105 37.5761 65.9346 37.5761 61.6469V58.5414C37.5761 54.2537 41.0521 50.7777 45.3398 50.7777C49.6275 50.7777 53.1034 54.2537 53.1034 58.5414Z" fill="#FAA68E"/>
<path d="M42.2343 56.9886V63.1996C42.2343 65.7392 43.4538 67.9941 45.3391 69.4105C41.0517 69.4102 37.5761 65.9342 37.5761 61.6468V58.5414C37.5761 54.254 41.0517 50.778 45.3391 50.7777C43.4538 52.1941 42.2343 54.4487 42.2343 56.9886ZM113.66 50.7777V44.5668C113.66 25.7008 98.3658 10.4067 79.4998 10.4067C60.6339 10.4067 45.3398 25.7008 45.3398 44.5668V56.9886C45.3398 72.6249 55.8455 85.8076 70.1835 89.8627V100.465C70.1835 105.61 74.3544 109.781 79.4998 109.781C84.6453 109.781 88.8162 105.611 88.8162 100.465V89.8627C99.2462 86.9128 107.648 79.133 111.453 69.0925C112.153 69.2993 112.893 69.4105 113.66 69.4105C117.948 69.4105 121.424 65.9345 121.424 61.6468V58.5414C121.424 54.2536 117.948 50.7777 113.66 50.7777Z" fill="#E09380"/>
<path d="M113.66 44.5668V56.9886C113.66 72.7619 102.969 86.0381 88.4386 89.9671C85.6366 90.7248 82.6796 90.7248 79.8775 89.9671C65.3467 86.0381 54.6562 72.7619 54.6562 56.9886V44.5668C54.6562 27.2809 67.4957 12.9939 84.1581 10.7219C100.82 12.9936 113.66 27.2806 113.66 44.5668Z" fill="#FAA68E"/>
<path d="M84.0036 59.0791C82.8003 60.2824 81.2013 60.9451 79.5007 60.9451C77.8002 60.9451 76.2012 60.2824 74.9978 59.0791C74.0882 58.1692 74.0882 56.6947 74.9978 55.7851C75.9074 54.8758 77.3822 54.8758 78.2915 55.7851C78.615 56.1087 79.0442 56.2869 79.5004 56.2869C79.9566 56.2869 80.3858 56.1087 80.7094 55.7851C81.619 54.8758 83.0937 54.8758 84.003 55.7851C84.9132 56.6947 84.9132 58.1692 84.0036 59.0791Z" fill="#D47F6C"/>
<path d="M69.4071 46.8959C69.4071 49.4685 67.3215 51.5541 64.749 51.5541C62.1764 51.5541 60.0908 49.4685 60.0908 46.8959C60.0908 44.3233 62.1764 42.2377 64.749 42.2377C67.3215 42.2377 69.4071 44.323 69.4071 46.8959ZM94.2508 42.2377C91.6783 42.2377 89.5926 44.3233 89.5926 46.8959C89.5926 49.4685 91.6783 51.5541 94.2508 51.5541C96.8234 51.5541 98.909 49.4685 98.909 46.8959C98.909 44.3233 96.8234 42.2377 94.2508 42.2377Z" fill="#2B3894"/>
<path d="M70.1835 44.5668C70.1835 45.8531 69.1407 46.8959 67.8544 46.8959C66.5681 46.8959 65.5253 45.8531 65.5253 44.5668C65.5253 43.2805 66.5681 42.2377 67.8544 42.2377C69.1407 42.2377 70.1835 43.2805 70.1835 44.5668ZM97.3563 42.2377C96.07 42.2377 95.0272 43.2805 95.0272 44.5668C95.0272 45.8531 96.07 46.8959 97.3563 46.8959C98.6426 46.8959 99.6854 45.8531 99.6854 44.5668C99.6854 43.2805 98.6426 42.2377 97.3563 42.2377Z" fill="#FFF5F5"/>
<path d="M88.8163 69.4105C88.8163 74.556 84.6453 78.7269 79.4999 78.7269C74.3548 78.7269 70.1835 74.556 70.1835 69.4105C70.1835 68.1242 71.2263 67.0814 72.5126 67.0814H86.4872C87.7735 67.0814 88.8163 68.1239 88.8163 69.4105Z" fill="#FFF5F5"/>
<path d="M81.829 78.4331C81.0846 78.6247 80.3042 78.7266 79.4999 78.7266C74.3548 78.7266 70.1835 74.5556 70.1835 69.4102C70.1835 68.1239 71.2263 67.0811 72.5126 67.0811H77.1708C75.8845 67.0811 74.8417 68.1239 74.8417 69.4102C74.8417 73.7513 77.8108 77.399 81.829 78.4331Z" fill="#E1EBF0"/>
<path d="M61.3037 24.4395C60.9534 25.0383 60.3081 25.4016 59.6143 25.4016H46.0428C52.2886 13.9543 64.4331 6.18813 78.3915 6.18813H80.6085C82.7388 6.18813 84.827 6.36917 86.8582 6.71636C75.9568 8.58026 66.6901 15.2365 61.3037 24.4395Z" fill="#E9CC5A"/>
<path d="M112.957 25.4018H60.5349C65.9266 15.5196 74.6653 8.38081 86.2214 6.61349C97.7777 8.38081 107.566 15.5196 112.957 25.4018Z" fill="#F1DE96"/>
<path d="M27.7069 67.5591L23.9477 71.103C23.7545 71.285 23.6691 71.554 23.7213 71.8142L24.7396 76.8789C24.8685 77.5196 24.1899 78.0186 23.6167 77.7049L19.0845 75.2249C18.8516 75.0976 18.5697 75.0992 18.3383 75.2293L13.836 77.763C13.2665 78.0835 12.5823 77.5925 12.7034 76.9503L13.6615 71.8738C13.7109 71.613 13.622 71.3453 13.4267 71.1655L9.62562 67.6665C9.1449 67.224 9.40048 66.4213 10.0486 66.3383L15.1726 65.6809C15.4359 65.6471 15.663 65.48 15.7735 65.2387L17.9265 60.5426C18.1989 59.9485 19.0411 59.9436 19.3206 60.5342L21.5295 65.2045C21.6428 65.4446 21.872 65.6089 22.1357 65.6396L27.2671 66.2362C27.9174 66.3113 28.1826 67.1107 27.7069 67.5591Z" fill="#FFF5F5"/>
<path d="M2.24153 54.5751L2.88405 51.1703C2.91697 50.9954 2.85766 50.8159 2.72661 50.6951L0.177333 48.3483C-0.145014 48.0514 0.0260972 47.5133 0.460862 47.4574L3.89768 47.0164C4.07438 46.9937 4.22654 46.8816 4.30077 46.7198L5.7448 43.5703C5.92741 43.1718 6.49229 43.1684 6.67986 43.5647L8.16147 46.6968C8.23756 46.8577 8.39128 46.968 8.56798 46.9885L12.0098 47.3884C12.4451 47.4391 12.6228 47.9754 12.3038 48.276L9.78284 50.6529C9.65334 50.7749 9.59589 50.9554 9.63098 51.1299L10.3142 54.527C10.4005 54.9568 9.94556 55.2915 9.56111 55.081L6.52117 53.4177C6.36497 53.3323 6.17584 53.3332 6.02057 53.4208L3.00082 55.1201C2.61916 55.335 2.16017 55.0055 2.24153 54.5751ZM140.362 111.712L144.119 109.598C144.312 109.489 144.547 109.488 144.742 109.594L148.524 111.664C149.002 111.926 149.568 111.509 149.461 110.974L148.611 106.747C148.567 106.53 148.639 106.306 148.8 106.154L151.937 103.196C152.334 102.822 152.112 102.155 151.571 102.092L147.288 101.594C147.068 101.569 146.877 101.432 146.782 101.231L144.939 97.3339C144.706 96.841 144.003 96.8451 143.776 97.3407L141.979 101.26C141.887 101.461 141.697 101.601 141.477 101.629L137.201 102.177C136.66 102.247 136.447 102.917 136.848 103.286L140.02 106.207C140.183 106.357 140.257 106.58 140.216 106.798L139.416 111.034C139.315 111.57 139.886 111.98 140.362 111.712Z" fill="#EAC23F"/>
<path d="M50.5529 102.575C50.5529 108.429 45.8074 113.175 39.9536 113.175H10.5992C4.74546 113.175 0 108.429 0 102.575C0 96.7215 4.74546 91.9761 10.5992 91.9761H20.0799L39.9536 78.7269V91.9761C45.8074 91.9761 50.5529 96.7215 50.5529 102.575Z" fill="#B4E7FD"/>
<path d="M50.5528 102.575C50.5528 108.429 45.8073 113.175 39.9536 113.175H27.0224C21.1686 113.175 16.4232 108.429 16.4232 102.575C16.4232 96.7215 21.1686 91.9761 27.0224 91.9761H39.9536C45.8073 91.9761 50.5528 96.7215 50.5528 102.575Z" fill="#D5F1FE"/>
<path d="M18.1409 102.575C18.1409 103.861 17.0981 104.904 15.8118 104.904C14.5255 104.904 13.4827 103.861 13.4827 102.575C13.4827 101.289 14.5255 100.246 15.8118 100.246C17.0981 100.246 18.1409 101.289 18.1409 102.575ZM25.3428 100.246C24.0565 100.246 23.0137 101.289 23.0137 102.575C23.0137 103.861 24.0565 104.904 25.3428 104.904C26.6291 104.904 27.6719 103.861 27.6719 102.575C27.6719 101.289 26.6291 100.246 25.3428 100.246ZM34.7402 100.246C33.4539 100.246 32.4111 101.289 32.4111 102.575C32.4111 103.861 33.4539 104.904 34.7402 104.904C36.0265 104.904 37.0693 103.861 37.0693 102.575C37.0693 101.289 36.0265 100.246 34.7402 100.246Z" fill="#9BB9C3"/>
</g>
</svg>
