<svg width="583" height="613" viewBox="0 0 583 613" fill="none" xmlns="http://www.w3.org/2000/svg">
<path d="M94.5597 300.491C117.167 372.428 190.244 427.934 266.996 418.816C292.12 415.839 316.479 406.535 341.774 406.79C356.641 406.943 372.614 411.587 384.181 421.198C400.937 435.129 408.83 453.007 429.498 462.278C449.23 471.124 472.245 472.927 492.981 466.531C522.273 457.498 546.054 432.374 553.453 402.622C563.507 362.222 542.771 318.437 505.688 299.912C480.835 287.495 452.564 296.051 438.632 266.044C431.114 249.833 430.688 231.377 427.558 213.788C416.535 151.751 367.749 98.0142 307.056 81.0887C178.405 45.2305 54.8401 174.136 94.5597 300.491Z" fill="url(#paint0_linear_2_305)"/>
<path d="M72.6538 416.767C71.327 416.767 70.2383 417.855 70.2383 419.182C70.2383 420.509 71.31 421.598 72.6538 421.598C73.9807 421.598 75.0693 420.509 75.0693 419.182C75.0693 417.855 73.9807 416.767 72.6538 416.767Z" fill="white"/>
<path d="M72.6538 460.348C71.327 460.348 70.2383 461.436 70.2383 462.763C70.2383 464.09 71.31 465.179 72.6538 465.179C73.9807 465.179 75.0693 464.107 75.0693 462.763C75.0523 461.419 73.9807 460.348 72.6538 460.348Z" fill="white"/>
<path d="M72.6538 482.121C71.327 482.121 70.2383 483.21 70.2383 484.537C70.2383 485.863 71.31 486.952 72.6538 486.952C73.9807 486.952 75.0693 485.88 75.0693 484.537C75.0523 483.21 73.9807 482.121 72.6538 482.121Z" fill="white"/>
<path d="M54.0784 421.598C55.4125 421.598 56.4939 420.516 56.4939 419.182C56.4939 417.848 55.4125 416.767 54.0784 416.767C52.7444 416.767 51.6629 417.848 51.6629 419.182C51.6629 420.516 52.7444 421.598 54.0784 421.598Z" fill="white"/>
<path d="M367.889 546C339.447 546 311.533 535.692 289.402 516.027C273.429 501.824 261.437 483.707 249.836 466.169C245.872 460.182 241.79 453.99 237.605 448.07C211.205 410.664 175.772 395.133 138.757 381.27L134.436 379.654C97.9143 366.011 56.5277 350.549 31.6072 318.178C4.23723 282.609 -6.22426 236.102 3.64186 193.779C14.8348 145.776 59.7086 90.8486 108.682 85.5753C125.795 83.7382 143.605 83.9593 160.836 84.1805C194.857 84.6057 230.018 85.048 261.369 69.6024C264.533 68.0375 267.799 66.2513 271.065 64.2441C282.139 57.4909 292.515 49.0367 302.551 40.8546C316.449 29.5256 330.84 17.7883 347.476 10.2696C374.693 -2.04602 402.267 -2.3352 429.45 9.40208C480.771 31.6009 521.732 94.0976 539.542 146.201C567.201 227.086 561.044 323.91 522.634 411.872C515.03 429.274 506.253 446.029 496.506 461.645C480.465 487.416 452.652 521.522 411.351 537.733C397.198 543.278 382.484 546 367.889 546ZM143.775 87.4125C132.106 87.4125 120.385 87.7187 109.022 88.9264C61.4777 94.0466 17.8627 147.647 6.94191 194.511C-2.68606 235.847 7.53726 281.299 34.2949 316.068C58.6199 347.674 99.5303 362.966 135.627 376.439L139.964 378.055C177.507 392.105 213.433 407.891 240.395 446.08C244.613 452.051 248.713 458.26 252.693 464.264C264.176 481.615 276.032 499.544 291.682 513.459C324.206 542.36 369.59 550.457 410.126 534.552C450.56 518.698 477.862 485.17 493.631 459.842C503.276 444.362 511.985 427.76 519.521 410.494C557.59 323.298 563.714 227.358 536.327 147.273C518.755 95.8838 478.474 34.2715 428.089 12.498C401.842 1.15196 375.186 1.42414 348.871 13.3315C332.643 20.6801 318.439 32.2643 304.695 43.4572C294.573 51.7073 284.112 60.2296 272.834 67.1019C269.483 69.1432 266.132 70.9973 262.866 72.5963C230.767 88.3991 195.181 87.9568 160.785 87.5145C155.155 87.4975 149.473 87.4125 143.775 87.4125Z" fill="url(#paint1_linear_2_305)"/>
<path d="M61.5287 426.105C47.9543 426.105 36.8974 415.065 36.8974 401.474C36.8974 387.899 47.9373 376.843 61.5287 376.843C75.1032 376.843 86.16 387.882 86.16 401.474C86.143 415.065 75.1032 426.105 61.5287 426.105ZM61.5287 385.773C52.8704 385.773 45.828 392.815 45.828 401.474C45.828 410.132 52.8704 417.175 61.5287 417.175C70.1871 417.175 77.2295 410.132 77.2295 401.474C77.2295 392.832 70.1871 385.773 61.5287 385.773Z" fill="url(#paint2_linear_2_305)"/>
<path d="M387.271 612.987C409.621 612.987 427.739 594.869 427.739 572.519C427.739 550.169 409.621 532.051 387.271 532.051C364.921 532.051 346.803 550.169 346.803 572.519C346.803 594.869 364.921 612.987 387.271 612.987Z" fill="url(#paint3_linear_2_305)"/>
<path d="M432.835 419.879C421.115 448.644 418.767 481.287 403.56 508.504C355.369 594.833 234.696 556.984 170.754 512.791C96.3664 461.368 47.0698 377.319 27.1165 290.106C22.9489 271.905 20.0571 253.414 18.5772 234.787C15.5323 196.548 21.1798 156.522 41.5754 124.032C65.118 86.5065 106.879 65.8217 150.953 69.8021C179.276 72.3537 205.625 84.6523 232.621 93.5829C275.028 107.6 311.074 100.489 352.818 88.5648C391.67 77.4739 435.217 64.0866 475.566 75.6197C517.191 87.5101 553.661 118.146 570.91 158.07C589.741 201.668 587.869 271.836 551.178 305.585C513.567 340.185 461.906 362.418 437.513 409.673C435.812 413.007 434.247 416.409 432.835 419.879Z" fill="url(#paint4_linear_2_305)"/>
<defs>
<linearGradient id="paint0_linear_2_305" x1="510.435" y1="470.298" x2="388.326" y2="358.372" gradientUnits="userSpaceOnUse">
<stop stop-color="#A84EFC"/>
<stop offset="1" stop-color="#34BDD5" stop-opacity="0"/>
</linearGradient>
<linearGradient id="paint1_linear_2_305" x1="502.559" y1="545.936" x2="103.152" y2="81.8519" gradientUnits="userSpaceOnUse">
<stop stop-color="#A84EFC"/>
<stop offset="1" stop-color="#34BDD5" stop-opacity="0"/>
</linearGradient>
<linearGradient id="paint2_linear_2_305" x1="44.122" y1="418.89" x2="78.9288" y2="384.083" gradientUnits="userSpaceOnUse">
<stop stop-color="#1EB1E9"/>
<stop offset="0.4256" stop-color="#81EAFE"/>
<stop offset="1" stop-color="#D0FFFF"/>
</linearGradient>
<linearGradient id="paint3_linear_2_305" x1="438" y1="603" x2="334.48" y2="577.03" gradientUnits="userSpaceOnUse">
<stop stop-color="#A84EFC"/>
<stop offset="1" stop-color="#34BDD5" stop-opacity="0"/>
</linearGradient>
<linearGradient id="paint4_linear_2_305" x1="527.807" y1="560.316" x2="176.807" y2="100.816" gradientUnits="userSpaceOnUse">
<stop stop-color="#A84EFC"/>
<stop offset="1" stop-color="#34BDD5" stop-opacity="0"/>
</linearGradient>
</defs>
</svg>
