<svg width="370" height="492" viewBox="0 0 370 492" fill="none" xmlns="http://www.w3.org/2000/svg">
<path d="M220.028 350.563C208.308 379.328 205.96 411.971 190.753 439.188C142.562 525.517 21.8891 487.668 -42.0535 443.475C-116.441 392.052 -165.737 308.003 -185.691 220.79C-189.858 202.588 -192.75 184.098 -194.23 165.471C-197.275 127.232 -191.627 87.2058 -171.232 54.7156C-147.689 17.1903 -105.928 -3.4945 -61.8538 0.485966C-33.5312 3.03755 -7.1819 15.3362 19.8138 24.2667C62.2212 38.2834 98.2665 31.173 140.01 19.2486C178.863 8.15774 222.41 -5.22957 262.759 6.30359C304.383 18.194 340.854 48.83 358.103 88.7537C376.933 132.352 375.062 202.52 338.37 236.269C300.76 270.869 249.099 293.102 224.706 340.357C223.005 343.691 221.44 347.093 220.028 350.563Z" fill="url(#paint0_linear_2_304)"/>
<defs>
<linearGradient id="paint0_linear_2_304" x1="315" y1="491" x2="-36" y2="31.5" gradientUnits="userSpaceOnUse">
<stop stop-color="#06053C"/>
<stop offset="1" stop-color="#12114E"/>
</linearGradient>
</defs>
</svg>
