<svg width="147" height="146" viewBox="0 0 147 146" fill="none" xmlns="http://www.w3.org/2000/svg">
<g opacity="0.15">
<path d="M61.0422 138.452C61.0422 142.621 64.4204 146 68.5897 146H78.6531C82.8212 146 86.2006 142.621 86.2006 138.452V123.357H61.0422V138.452Z" fill="#EBEBEB"/>
<path d="M49.1866 96.0776C46.9865 94.66 44.9116 93.0532 42.9879 91.2781C41.3455 97.5935 35.1382 101.598 28.7073 100.493C22.2752 99.387 17.762 93.5409 18.3209 87.0388C18.8798 80.5366 24.3255 75.5467 30.8522 75.5566C31.2367 75.5566 31.6064 75.6364 31.9737 75.6696C29.5894 70.0642 28.3597 64.0363 28.3609 57.9457H25.1584L23.4201 66.2143C23.2469 67.0386 22.6733 67.7216 21.892 68.0336C21.1095 68.3469 20.2238 68.2474 19.5309 67.7695L12.5792 62.9774L5.03168 70.5249L9.81152 77.4754C10.2894 78.1694 10.3889 79.0551 10.0756 79.8364C9.76361 80.6189 9.0806 81.1926 8.25755 81.3646L0 83.1041V93.1674L8.26738 94.9057C9.09043 95.0789 9.77344 95.6526 10.0867 96.4338C10.3987 97.2151 10.2992 98.1021 9.82135 98.7949L5.03168 105.747L12.5792 113.294L19.5309 108.513C20.2238 108.035 21.1107 107.934 21.8932 108.248C22.6757 108.56 23.2494 109.244 23.4226 110.068L25.1584 118.326H35.2217L36.9575 110.056C37.1307 109.23 37.7044 108.547 38.4869 108.235C39.2694 107.922 40.1564 108.022 40.8492 108.501L47.8009 113.294L55.6985 105.397C54.8706 101.54 52.523 98.1807 49.1866 96.0776Z" fill="#C9DFFF"/>
<path d="M118.907 57.9457C118.904 36.233 103.491 17.5768 82.1691 13.4787C60.8471 9.38064 39.616 20.9918 31.5649 41.1566C23.5137 61.3214 30.9064 84.3632 49.1868 96.0776C53.3758 98.6745 55.9493 103.231 56.0108 108.159V118.326C56.0108 122.494 59.389 125.873 63.5583 125.873H83.685C87.8531 125.873 91.2325 122.494 91.2325 118.326V108.368C91.2964 103.323 93.9215 98.6573 98.2014 95.9842C111.117 87.6456 118.915 73.3195 118.907 57.9457Z" fill="#FFB41F"/>
<path d="M134.487 31.3304L142.397 25.3983L133.339 13.3215L125.43 19.2536C123.802 20.4735 121.599 20.5926 119.849 19.5558C118.098 18.519 117.145 16.5302 117.431 14.5168L118.828 4.73227L103.884 2.59724L102.487 12.3805C102.201 14.3964 100.728 16.04 98.7565 16.5449C96.7849 17.051 94.7027 16.3189 93.4816 14.69L87.5507 6.78007L75.4752 15.8373L81.4049 23.7472C82.6247 25.3761 82.7438 27.5775 81.707 29.328C80.6702 31.0785 78.6814 32.0318 76.668 31.7456L66.8835 30.3489L64.7473 45.2928L74.5342 46.6895C76.5488 46.977 78.1925 48.4499 78.6974 50.4215C79.2023 52.3932 78.4701 54.4753 76.8412 55.6964L68.9338 61.6285L77.991 73.7041L85.8985 67.7744C87.5262 66.5533 89.73 66.433 91.4817 67.4697C93.2322 68.5066 94.1867 70.4966 93.8993 72.5113L92.4903 82.2933L107.434 84.4296L108.843 74.6426C109.131 72.628 110.604 70.9855 112.575 70.4807C114.547 69.9745 116.629 70.7079 117.849 72.3356L123.782 80.243L135.858 71.1858L129.923 63.2783C128.702 61.6507 128.582 59.4468 129.619 57.6951C130.655 55.9446 132.645 54.9901 134.66 55.2787L144.445 56.6767L146.581 41.7328L136.796 40.3348C134.783 40.0461 133.14 38.5745 132.634 36.6028C132.129 34.6324 132.86 32.5514 134.487 31.3304ZM105.665 61.1224C95.9385 61.1224 88.0544 53.2383 88.0544 43.5116C88.0544 33.786 95.9385 25.9007 105.665 25.9007C115.392 25.9007 123.276 33.786 123.276 43.5116C123.276 53.2383 115.392 61.1224 105.665 61.1224Z" fill="#1CC8EB"/>
<path d="M61.0422 130.905H86.2006V135.937H61.0422V130.905Z" fill="#9E9E9E"/>
<path d="M71.1057 110.778H76.1374V118.326H71.1057V110.778Z" fill="#FFAA00"/>
<path d="M76.1373 105.747H71.1056C71.1032 99.0946 67.0014 93.1318 60.7904 90.751C48.409 85.9098 39.8075 74.5099 38.552 61.2747C37.2966 48.0395 43.5997 35.2257 54.8497 28.1425L57.5191 32.3991C47.8734 38.4688 42.4671 49.4535 43.5432 60.8005C44.6181 72.1464 51.9911 81.9198 62.6061 86.0695C70.7604 89.1885 76.1434 97.0161 76.1373 105.747Z" fill="#FFAA00"/>
<path d="M123.938 93.1674H136.517C137.907 93.1674 139.033 94.2927 139.033 95.6833C139.033 97.0726 137.907 98.1991 136.517 98.1991H123.938C122.549 98.1991 121.422 97.0726 121.422 95.6833C121.422 94.2927 122.549 93.1674 123.938 93.1674Z" fill="#FFAA00"/>
<path d="M118.907 108.264C119.796 107.196 121.382 107.051 122.45 107.941L133.68 117.298C134.747 118.187 134.892 119.773 134.003 120.84C133.112 121.908 131.526 122.053 130.459 121.164L119.229 111.807C118.161 110.917 118.017 109.331 118.907 108.264Z" fill="#FFAA00"/>
<path d="M108.843 113.294C110.232 113.294 111.359 114.419 111.359 115.81V128.389C111.359 129.779 110.232 130.905 108.843 130.905C107.453 130.905 106.327 129.779 106.327 128.389V115.81C106.327 114.419 107.453 113.294 108.843 113.294Z" fill="#FFAA00"/>
<path d="M2.49362 42.3126L17.7385 38.5044C19.0873 38.1679 20.4521 38.9872 20.7887 40.3348C21.1253 41.6824 20.306 43.0472 18.9571 43.3838L3.71223 47.192C2.36341 47.5285 0.998612 46.7092 0.662021 45.3616C0.325429 44.014 1.1448 42.6492 2.49362 42.3126Z" fill="#FFAA00"/>
<path d="M5.6921 15.1776C6.49918 14.0475 8.07035 13.787 9.20051 14.5941L22.7158 24.2484C23.8472 25.0555 24.1088 26.6267 23.3017 27.7568C22.4947 28.887 20.9235 29.1486 19.7933 28.3403L6.27806 18.686C5.14667 17.879 4.88502 16.3078 5.6921 15.1776Z" fill="#FFAA00"/>
<path d="M28.2246 0.0789416C29.5709 -0.265021 30.9407 0.546976 31.2846 1.89334L35.1837 17.1444C35.5276 18.4907 34.7156 19.8617 33.3693 20.2056C32.0229 20.5496 30.6532 19.7364 30.3092 18.3912L26.4102 3.14021C26.0662 1.79384 26.8782 0.422904 28.2246 0.0789416Z" fill="#FFAA00"/>
</g>
</svg>
