<svg width="64" height="24" viewBox="0 0 64 24" fill="none" xmlns="http://www.w3.org/2000/svg">
<path d="M2.68069 14.5943C2.30082 14.5943 1.93861 14.506 1.59407 14.3381C1.24953 14.1703 0.949161 13.9406 0.710634 13.6579C-0.0667887 12.7656 -0.208138 11.6525 0.295419 10.3097C0.781308 9.0287 1.67358 7.49153 2.97223 5.70699C3.64364 4.79705 4.24437 4.05496 4.7656 3.4984C5.63136 2.56196 6.17026 2.09374 6.38228 2.09374C6.59431 2.09374 6.824 2.16441 7.0802 2.29693C7.33639 2.42945 7.57492 2.5973 7.80461 2.79165C8.32584 3.26871 8.56437 3.72809 8.53786 4.16981C8.5202 4.52319 8.19332 5.11509 7.54842 5.95435L6.67382 7.06748C4.77443 9.42625 4.34155 10.61 5.36633 10.61C5.59603 10.61 5.82572 10.557 6.06425 10.4422C8.66154 9.25839 11.0822 7.5357 13.3172 5.29177L14.8014 3.7546C15.2255 3.31288 15.5788 2.95067 15.8615 2.68564C16.1442 2.42061 16.3651 2.27926 16.5329 2.27926C16.7008 2.27926 16.8775 2.33227 17.063 2.44711C17.2485 2.56196 17.4075 2.69448 17.5489 2.85349C17.8581 3.19803 18.0083 3.50724 17.9994 3.77227C17.8758 5.41545 16.8245 8.20711 14.8456 12.1384C14.4304 12.96 14.0063 13.7816 13.5558 14.5855C12.372 16.6439 11.5327 18.0397 11.0468 18.773C10.5609 19.5062 10.1457 20.0981 9.79234 20.5575C9.03259 21.5293 8.51136 22.024 8.21983 22.024C7.89296 22.024 7.34523 21.706 6.5678 21.0611C5.74621 20.3897 5.331 19.8508 5.331 19.4444C5.331 19.3207 5.56952 18.9497 6.04658 18.3401L8.63504 15.0891C9.95136 13.3929 10.8525 12.2002 11.3295 11.5288C12.372 10.0447 13.1406 8.79901 13.6264 7.78306C11.9479 9.17889 10.7995 10.1065 10.1811 10.5835L8.46719 11.8469C5.88756 13.6756 3.95284 14.5943 2.68069 14.5943ZM63.6818 8.1541C63.1429 8.1541 62.339 8.59582 61.2701 9.48809L60.0686 10.451C59.8389 10.6277 59.6092 10.7956 59.3972 10.9458C59.1852 11.0959 58.982 11.2196 58.8053 11.3168C58.6286 11.414 58.4873 11.4581 58.3901 11.4581C58.2929 11.4581 58.1869 11.2991 58.0632 10.9723C58.0102 10.8309 57.9572 10.6719 57.9042 10.4952C57.8512 10.3185 57.7982 10.1418 57.7363 9.97398C57.4978 9.32907 57.0119 9.01103 56.2787 9.01103C55.4129 9.01103 54.3439 9.39974 53.063 10.1683L52.2325 10.6542C50.9692 11.3963 50.1653 11.7673 49.8208 11.7673C49.4674 11.7673 49.2907 11.6613 49.2907 11.4405C49.2907 11.2196 49.4144 10.9988 49.6617 10.7602C50.5275 9.92097 51.888 9.11704 53.7432 8.33962L54.9977 7.80073C55.3511 7.65054 55.5808 7.50036 55.6956 7.35018C55.8104 7.19999 55.8634 6.98797 55.8634 6.69643C55.8634 6.27239 55.6514 6.06036 55.2185 6.06036C53.9464 6.06036 52.2679 6.44907 50.2006 7.22649C49.1052 7.64171 48.1511 8.08343 47.3471 8.53398C47.1263 8.64882 46.8966 8.78134 46.6757 8.94919C46.1722 9.27606 45.7481 9.61177 45.3948 9.96514C45.3152 10.0447 45.2357 10.1242 45.1651 10.2037L44.9442 10.3892C44.0254 11.1224 43.3982 11.4935 43.0448 11.4935C42.4264 11.4935 42.1172 11.0694 42.1172 10.2213C42.1172 9.62944 42.3116 8.92269 42.6914 8.09226C42.9123 7.74772 43.1597 7.39435 43.4512 7.0233L45.1562 4.77055C45.4389 4.38184 45.6863 3.98429 45.8983 3.58674C46.1103 3.1892 46.287 2.78282 46.4195 2.38527C46.5521 1.97889 46.6227 1.59902 46.6227 1.23681C46.6227 0.8746 46.3842 0.547729 45.9071 0.247362C45.6421 0.0795091 45.2799 0 44.8293 0C43.5925 0 42.3646 1.17497 41.1454 3.51607C40.4564 4.67337 39.8291 6.1487 39.2637 7.92441L38.8043 9.41741C38.4421 9.72661 37.9562 10.0712 37.3467 10.451L36.4986 10.9723C35.5445 11.5377 34.9084 11.8204 34.5903 11.8204C34.2016 11.8204 34.0161 11.679 34.0161 11.4051C34.0161 11.1313 34.29 10.7602 34.8289 10.292C35.5886 9.75312 36.3749 9.29373 37.1788 8.91385C37.4792 8.77251 37.7265 8.66649 37.9386 8.58698C38.1418 8.50747 38.2919 8.44563 38.3803 8.40146C38.663 8.26011 38.7955 8.08343 38.7955 7.85373C38.7955 7.57103 38.5746 7.28833 38.1418 6.98797C37.9562 6.86429 37.7707 6.76711 37.5764 6.69643C37.3908 6.61693 37.1788 6.58159 36.9579 6.58159C36.7283 6.58159 36.1982 6.74061 35.3413 7.04981C33.6009 7.68588 32.0991 8.4633 30.8357 9.39091C30.1113 9.82379 29.5283 10.0358 29.0865 10.0358C28.477 10.0358 28.1678 9.85913 28.1678 9.49692C28.1678 9.39974 28.1854 9.30257 28.2296 9.19655C28.265 9.09054 28.2915 8.94036 28.2915 8.746C28.2915 8.09226 28.0794 7.5622 27.6554 7.14699C27.4787 6.96146 27.196 6.77594 26.825 6.59042C26.4539 6.4049 26.021 6.31656 25.544 6.31656C24.475 6.31656 23.2736 6.52858 21.9396 6.9438C21.3123 7.14699 20.6056 7.42085 19.8282 7.79189C19.0507 8.1541 18.238 8.693 17.4075 9.39091C16.2767 10.3539 15.7025 11.3698 15.7025 12.4299C15.7025 13.1632 15.9675 13.8964 16.4888 14.612C17.1425 15.4954 18.0259 15.9372 19.1479 15.9372C20.2169 15.9372 21.4713 15.575 22.9025 14.8594C24.2453 14.1791 25.2789 13.437 25.9857 12.6331C26.1094 12.7215 26.2419 12.801 26.3744 12.8805C26.8073 13.1278 27.3815 13.2515 28.1059 13.2515C28.4328 13.2515 28.7773 13.1897 29.1307 13.0748C29.2367 13.6844 29.4841 14.2321 29.864 14.7092C30.4647 15.4424 31.2686 15.8046 32.2757 15.8046C33.4772 15.8046 35.2971 14.9654 37.7354 13.278L38.6188 12.6419C38.769 13.384 38.9545 13.9494 39.1842 14.3381C39.5729 14.9742 40.1383 15.2923 40.8981 15.2923C41.8345 15.2923 43.0536 14.7269 44.5555 13.5961C44.7057 14.0024 44.9265 14.3735 45.2357 14.7269C45.863 15.4513 46.6404 15.8135 47.5768 15.8135C48.3101 15.8135 49.4055 15.4159 50.8632 14.6208L52.0912 13.9229L54.2114 12.6154L54.45 13.4812C54.6531 14.2056 54.9182 14.7269 55.2539 15.0537C55.6691 15.4424 56.3405 15.4513 57.2858 15.1067C58.8053 14.5325 60.422 13.3929 62.1447 11.6702L62.7101 11.0959C63.5758 10.1153 63.9999 9.3114 63.9999 8.693C63.9999 8.33079 63.8939 8.1541 63.6818 8.1541ZM24.1835 10.5482C23.5739 11.0429 22.8937 11.4581 22.1339 11.785C21.8247 11.9175 21.5067 12.0324 21.171 12.1207C20.8353 12.2091 20.5084 12.1649 20.208 11.9794C20.0844 11.891 20.0225 11.7055 20.0225 11.4228V11.414L20.0313 11.3875C20.0313 11.2726 20.1109 11.1224 20.2699 10.9193C20.7646 10.3362 21.5155 9.77079 22.5138 9.21422C23.4149 8.7195 24.1305 8.4633 24.6605 8.4633C24.2453 8.94036 24.0333 9.41741 24.0333 9.89447C24.0245 10.1242 24.0775 10.3362 24.1835 10.5482Z" fill="#0BAECA"/>
<path d="M48.0983 17.4039C48.0983 17.5099 48.0718 17.6601 48.0276 17.8279C47.9746 18.0576 47.9393 18.199 47.9216 18.252C47.8951 18.4022 47.8598 18.8969 47.8068 19.7362C47.7626 20.5047 47.7361 20.9288 47.7361 21.0083C47.7361 21.5207 47.8068 21.8829 47.9658 22.0949C47.9128 22.1479 47.8421 22.1744 47.7538 22.1744C47.6743 22.1744 47.5859 22.1479 47.4887 22.1038C47.3916 22.0596 47.3297 22.0066 47.3032 21.9624C47.3032 21.8652 47.2767 21.7239 47.2325 21.5207C46.7643 21.8829 46.3226 22.0596 45.8897 22.0596C45.3773 22.0596 44.9798 21.9447 44.7059 21.7062C44.4674 21.503 44.3525 21.238 44.3525 20.9111C44.3525 20.5047 44.4762 20.0895 44.7236 19.6655C45.0416 19.1001 45.4568 18.8174 45.9781 18.8174C46.1989 18.8174 46.4286 18.8704 46.6583 18.9676C46.7025 18.9852 46.888 19.0913 47.2149 19.2679C47.2944 18.9411 47.3297 18.2255 47.3297 17.1212C47.3827 17.0859 47.4622 17.0682 47.5594 17.0682C47.7096 17.0682 47.8421 17.1035 47.9481 17.1654C48.0453 17.2272 48.0983 17.3067 48.0983 17.4039ZM47.206 20.0542C47.206 19.8422 47.1265 19.6567 46.9675 19.4888C46.782 19.2856 46.517 19.1884 46.1989 19.1884C45.8014 19.1884 45.4833 19.4358 45.2536 19.9217C45.0681 20.2927 44.9709 20.6373 44.9709 20.9641C44.9709 21.1762 45.0239 21.3528 45.1388 21.5119C45.289 21.7151 45.5187 21.8122 45.819 21.8122C46.3138 21.8122 46.6848 21.5825 46.9322 21.1232C47.1089 20.7874 47.206 20.4341 47.206 20.0542ZM49.6443 19.1619C49.6443 19.2503 49.609 19.374 49.5471 19.5506C49.4765 19.7273 49.45 19.851 49.45 19.9393V21.5295C49.45 21.6355 49.4853 21.7769 49.5648 21.9624C49.5295 21.9978 49.4853 22.0243 49.4323 22.0243C49.0436 22.0243 48.8492 21.9094 48.8492 21.6886V19.0559C48.9552 19.0206 49.0524 19.0029 49.1496 19.0029C49.2468 19.0029 49.3439 19.0206 49.45 19.0559C49.5736 19.0736 49.6443 19.1089 49.6443 19.1619ZM49.8652 18.0841C49.8652 18.2432 49.7415 18.3315 49.4853 18.3315C49.3351 18.3315 49.1938 18.2962 49.0701 18.2343C48.9464 18.1636 48.8846 18.093 48.8846 18.0046C48.8846 17.8456 49.0171 17.7573 49.2909 17.7573C49.45 17.7573 49.5825 17.7926 49.6973 17.8544C49.8122 17.9075 49.8652 17.987 49.8652 18.0841ZM53.9378 19.8157C53.9378 19.8422 53.9378 19.8863 53.929 19.9393C53.7611 20.4164 53.6816 20.8051 53.6816 21.0966C53.6816 21.2468 53.6904 21.4765 53.7169 21.7769C53.7434 22.0861 53.7523 22.3158 53.7523 22.466C53.7523 22.7663 53.7169 22.9784 53.6374 23.1109C53.5403 23.2699 53.3636 23.4024 53.0897 23.5084C52.8247 23.6144 52.542 23.6674 52.2593 23.6674C51.9236 23.6674 51.5437 23.6233 51.1108 23.5349C50.5542 23.4289 50.2804 23.3052 50.2804 23.1551C50.2804 23.0225 50.3599 22.9607 50.5277 22.9607C50.5984 22.9607 50.6603 22.9872 50.7133 23.049C50.7928 23.1285 50.8458 23.1727 50.8635 23.1816C50.9253 23.2169 51.0931 23.2522 51.3493 23.2876C51.5879 23.3229 51.7646 23.3494 51.8794 23.3494C52.3211 23.3494 52.6568 23.2434 52.8865 23.0314C53.0809 22.8547 53.1869 22.625 53.1869 22.3335C53.1869 22.0243 53.1427 21.7857 53.0544 21.6002C52.6745 21.9006 52.2239 22.0508 51.6939 22.0508C51.5349 22.0508 51.3493 22.0154 51.1373 21.9536C50.9253 21.8917 50.7663 21.8211 50.6603 21.7416C50.4482 21.5914 50.3422 21.344 50.3422 21.0171C50.3422 20.6108 50.4659 20.169 50.7133 19.7008C51.0313 19.0913 51.4465 18.7909 51.9589 18.7909C52.3741 18.7909 52.807 19.0117 53.2664 19.4623C53.3106 19.5153 53.3901 19.586 53.4961 19.6743C53.5844 19.692 53.7346 19.745 53.9378 19.8157ZM53.2222 20.2044C53.2222 20.1072 53.1604 20.0189 53.0455 19.957C53.019 19.7538 52.9395 19.586 52.7982 19.4358C52.6126 19.2591 52.3741 19.1708 52.0649 19.1708C51.8529 19.1708 51.6409 19.3209 51.42 19.6125C51.261 19.8333 51.155 20.0365 51.102 20.2309C51.0225 20.5224 50.9871 20.7609 50.9871 20.9641C50.9871 21.556 51.2698 21.8476 51.8264 21.8476C52.2504 21.8476 52.6127 21.6355 52.8954 21.2027C53.1162 20.8493 53.2222 20.5224 53.2222 20.2044ZM55.6693 19.1619C55.6693 19.2503 55.634 19.374 55.5722 19.5506C55.5015 19.7273 55.475 19.851 55.475 19.9393V21.5295C55.475 21.6355 55.5103 21.7769 55.5898 21.9624C55.5545 21.9978 55.5103 22.0243 55.4573 22.0243C55.0686 22.0243 54.8742 21.9094 54.8742 21.6886V19.0559C54.9803 19.0206 55.0774 19.0029 55.1746 19.0029C55.2718 19.0029 55.369 19.0206 55.475 19.0559C55.5987 19.0736 55.6693 19.1089 55.6693 19.1619ZM55.8902 18.0841C55.8902 18.2432 55.7665 18.3315 55.5103 18.3315C55.3601 18.3315 55.2188 18.2962 55.0951 18.2343C54.9714 18.1636 54.9096 18.093 54.9096 18.0046C54.9096 17.8456 55.0421 17.7573 55.316 17.7573C55.475 17.7573 55.6075 17.7926 55.7223 17.8544C55.8372 17.9075 55.8902 17.987 55.8902 18.0841ZM58.4787 19.7008C58.4168 19.7273 58.2666 19.7538 58.0281 19.7715C57.7631 19.7892 57.6129 19.8068 57.5776 19.8245C57.5687 19.8775 57.5687 20.1425 57.5687 20.6196C57.5687 20.9906 57.5776 21.2468 57.5952 21.3705C57.5952 21.4235 57.6129 21.503 57.6571 21.6179C57.6924 21.7327 57.7189 21.8211 57.7189 21.8829C57.7189 21.9182 57.6836 21.9624 57.6041 21.9978C57.5245 22.0331 57.4539 22.0596 57.392 22.0596C57.233 22.0596 57.1093 21.9624 57.0122 21.7681C56.9503 21.6267 56.915 21.4854 56.915 21.3617V19.8687C56.8708 19.8422 56.6941 19.8422 56.3849 19.8687C56.1376 19.8863 56.0139 19.8333 56.0139 19.7008C56.0139 19.5153 56.3319 19.4358 56.9768 19.4535L57.127 18.1548C57.127 18.1371 57.1182 18.1195 57.1005 18.0841C57.0828 18.0488 57.074 18.0311 57.074 18.0135C57.074 17.987 57.1093 17.9605 57.1712 17.934C57.233 17.9075 57.3125 17.8986 57.4009 17.8986C57.6747 17.9163 57.8161 17.9958 57.8161 18.146C57.8161 18.2697 57.7896 18.4463 57.7366 18.6849C57.6836 18.9234 57.6571 19.1001 57.6571 19.2149C57.6571 19.2768 57.6659 19.3298 57.6836 19.3828L58.3373 19.3651C58.5582 19.3651 58.673 19.4181 58.673 19.5241C58.6377 19.6036 58.5847 19.6655 58.4787 19.7008ZM62.2774 22.1744C62.2774 22.2451 62.1891 22.2716 62.0124 22.2716C61.8269 22.2716 61.712 22.2274 61.6679 22.1303C61.659 22.1126 61.659 22.0243 61.659 21.8476C61.659 21.8034 61.6502 21.7592 61.6237 21.7327C61.182 21.9271 60.7049 22.0243 60.1837 22.0243C59.8303 22.0243 59.4858 21.9624 59.1501 21.8476C58.7702 21.7151 58.5847 21.5472 58.5847 21.344C58.5847 21.1497 58.8144 20.9553 59.2649 20.7698C59.6801 20.5931 60.06 20.5136 60.4045 20.5136H61.5795C61.6237 20.4871 61.6502 20.4341 61.6502 20.3634C61.6502 20.0454 61.606 19.798 61.5177 19.639C61.3763 19.3651 61.0936 19.2326 60.6784 19.2326C60.378 19.2326 60.1042 19.3474 59.848 19.5771C59.6183 19.7892 59.5034 19.9924 59.5034 20.1779V20.2574C59.5034 20.2927 59.4681 20.3192 59.4063 20.3192C59.3268 20.3192 59.2384 20.2927 59.1412 20.2309C59.0441 20.169 58.9999 20.1249 58.9999 20.0807C58.9999 19.9482 59.0706 19.7803 59.2031 19.5771C59.3356 19.374 59.4858 19.2149 59.6448 19.1178C59.8391 18.9852 60.0865 18.9234 60.378 18.9234C60.8286 18.9234 61.2438 19.0117 61.6237 19.1796C62.0301 19.3651 62.2333 19.5948 62.2421 19.851L62.2774 22.1744ZM61.6502 21.0348C61.6502 20.8405 61.4028 20.7433 60.9169 20.7433C60.5282 20.7433 60.1925 20.7874 59.8922 20.867C59.5211 20.973 59.3356 21.132 59.3356 21.344C59.3356 21.4765 59.4328 21.5737 59.636 21.6444C59.8038 21.7062 59.9982 21.7416 60.2279 21.7416C60.5724 21.7416 60.8904 21.6709 61.1908 21.5384C61.5 21.4059 61.6502 21.238 61.6502 21.0348ZM64.0001 21.8917C64.0001 22.0154 63.8853 22.0773 63.6644 22.0773C63.3199 22.0773 63.1432 21.6444 63.152 20.7786L63.1874 17.5541C63.1874 17.5011 63.1785 17.4304 63.152 17.3244C63.1255 17.2272 63.1167 17.1565 63.1167 17.1035C63.2669 17.0329 63.3906 17.0063 63.4966 17.0063C63.6114 17.0063 63.7174 17.0329 63.8323 17.077C63.9471 17.1212 64.0001 17.183 64.0001 17.2537C64.0001 17.2979 63.9825 17.3597 63.9383 17.4392C63.8941 17.5364 63.8588 17.5982 63.8588 17.6159C63.7616 17.9428 63.7174 18.3933 63.7174 18.9764C63.7174 19.9217 63.7174 20.3722 63.7086 20.3369C63.7351 20.9288 63.7969 21.3705 63.8941 21.662C63.8941 21.6797 63.9118 21.7062 63.9471 21.7592C63.9825 21.8122 64.0001 21.8652 64.0001 21.8917Z" fill="white"/>
</svg>
