<svg width="70" height="82" viewBox="0 0 70 82" fill="none" xmlns="http://www.w3.org/2000/svg">
<path d="M61.4608 51.9351L22.3828 47.4174C20.7527 47.2289 19.5839 45.7545 19.7723 44.1245L24.29 5.04647C24.4784 3.41641 25.9529 2.24758 27.5829 2.43602L66.6609 6.95368C68.291 7.14212 69.4598 8.61654 69.2714 10.2466L64.7537 49.3246C64.5653 50.9547 63.0909 52.1235 61.4608 51.9351Z" fill="#FF8900"/>
<path d="M66.6148 6.94835L64.303 6.68109L60.0085 43.8293C59.8171 45.4846 58.3201 46.672 56.6641 46.4805L19.9901 42.2408L19.7777 44.0784C19.5862 45.7344 20.7729 47.2313 22.4289 47.4227L61.4147 51.9297C63.0707 52.1212 64.5676 50.9345 64.759 49.2785L69.266 10.2927C69.4574 8.63743 68.2708 7.13979 66.6148 6.94835Z" fill="#FF6914"/>
<path d="M64.6681 49.7296C65.0244 42.144 59.4483 35.4725 51.7909 34.5873L35.7548 32.7334C28.0982 31.8483 21.147 37.0715 19.7631 44.5383C19.8165 46.0028 20.9285 47.2493 22.4288 47.4228L61.4146 51.9298C62.9149 52.1032 64.2819 51.1432 64.6681 49.7296Z" fill="#FF6914"/>
<path d="M60.1019 25.9977C59.129 34.4139 51.5173 40.448 43.1012 39.475C34.685 38.5021 28.6509 30.8904 29.6238 22.4743C30.5968 14.0581 38.2084 8.024 46.6246 8.99696C55.0408 9.96992 61.0749 17.5816 60.1019 25.9977Z" fill="#FFDED5"/>
<path d="M60.576 38.9233L60.0088 43.8293C59.8175 45.4846 58.3205 46.672 56.6645 46.4806L20.3746 42.2852C20.1155 43.0096 19.9074 43.7611 19.7636 44.5383C19.817 46.0028 20.9289 47.2493 22.4293 47.4228L61.415 51.9298C62.9154 52.1032 64.2824 51.1432 64.6686 49.7296C64.863 45.5903 63.2884 41.7263 60.576 38.9233Z" fill="#ED500A"/>
<path d="M3.46451 73.9324L1.65772 71.6532C0.946474 70.756 1.09726 69.4517 1.99445 68.7404L34.4581 43.005C35.3553 42.2938 36.6596 42.4445 37.3708 43.3417L39.1776 45.6209C39.8896 46.5182 39.7388 47.8225 38.8409 48.5336L6.37727 74.2691C5.48008 74.9803 4.17647 74.8296 3.46451 73.9324Z" fill="#FAD200"/>
<path d="M39.1425 45.5758L37.5932 43.6215C37.762 44.3917 37.4969 45.2256 36.8376 45.749L4.46406 71.4123C3.54195 72.1433 2.20159 71.9883 1.47059 71.0662L1.28377 70.8314C1.35131 71.1379 1.48489 71.4352 1.69329 71.6981L3.42871 73.8872C4.15971 74.8093 5.50007 74.9643 6.42218 74.2333L38.7958 48.5692C39.7186 47.8383 39.8735 46.4979 39.1425 45.5758Z" fill="#FAB700"/>
<path d="M43.6367 34.8423C41.3444 34.5773 39.3404 33.1955 38.2754 31.1452C37.9111 30.4437 38.1848 29.5793 38.8863 29.2149C39.5879 28.8506 40.4515 29.1242 40.8166 29.8258C41.4419 31.0308 42.6194 31.8424 43.9655 31.998C45.3311 32.1559 46.6747 31.6196 47.5592 30.5637C48.0666 29.9578 48.9697 29.8782 49.5755 30.3857C50.1821 30.8932 50.2618 31.7963 49.7543 32.4021C48.2489 34.1991 45.9622 35.1111 43.6367 34.8423Z" fill="#FF6914"/>
<path d="M52.1462 46.8623L52.3887 48.7882C52.7807 51.9101 54.6426 54.2935 57.3551 55.8887C57.6044 56.1008 57.5585 56.4979 57.2674 56.6475C54.2625 57.581 51.9058 59.4774 50.8119 62.4275L50.1363 64.2473C49.9982 64.6213 49.4498 64.5579 49.3999 64.1622L49.1581 62.2363C48.7661 59.1144 46.9034 56.731 44.1916 55.1359C43.9423 54.9238 43.9882 54.5267 44.2794 54.3771C47.2835 53.4435 49.6409 51.5472 50.7348 48.5971L51.4097 46.7771C51.5486 46.4032 52.0962 46.4666 52.1462 46.8623Z" fill="#FAB700"/>
<path d="M53.0256 55.3882C51.3073 54.3775 49.9318 53.0486 49.0535 51.4172C47.8261 52.8051 46.1837 53.7851 44.2794 54.377C43.9876 54.5259 43.9416 54.9237 44.1917 55.1359C45.9107 56.1466 47.2863 57.4748 48.1646 59.1062C49.3919 57.7182 51.0343 56.739 52.9379 56.147C53.2297 55.9974 53.2757 55.5996 53.0256 55.3882Z" fill="#FAD200"/>
<path d="M39.5683 56.5825L39.6973 57.6081C39.9061 59.2695 40.8979 60.5387 42.3412 61.3883C42.4742 61.5008 42.4497 61.7127 42.2945 61.7919C40.6955 62.2891 39.4403 63.2985 38.8578 64.8691L38.4983 65.8382C38.4249 66.0371 38.133 66.0034 38.1062 65.7929L37.9772 64.7673C37.7685 63.1052 36.7775 61.8361 35.3333 60.9871C35.2003 60.8746 35.2248 60.6628 35.38 60.5836C36.9798 60.0857 38.235 59.0763 38.8167 57.5063L39.1763 56.5372C39.2504 56.3377 39.5416 56.3713 39.5683 56.5825Z" fill="#FAB700"/>
<path d="M40.0367 61.1212C39.1219 60.5831 38.3894 59.8756 37.9217 59.0073C37.2681 59.7459 36.3936 60.2677 35.3801 60.5829C35.2248 60.6628 35.2004 60.8739 35.3333 60.9872C36.2482 61.5252 36.9806 62.2328 37.4484 63.1011C38.1019 62.3624 38.9765 61.8406 39.99 61.5255C40.1453 61.4456 40.1698 61.2337 40.0367 61.1212Z" fill="#FAD200"/>
<path d="M26.1669 33.2228L26.2959 34.2484C26.5047 35.9098 27.4958 37.1789 28.9398 38.0286C29.0729 38.1411 29.0484 38.353 28.8932 38.4321C27.2934 38.9293 26.039 39.9388 25.4565 41.5094L25.0969 42.4785C25.0228 42.6773 24.7309 42.6436 24.7049 42.4332L24.5759 41.4076C24.3671 39.7455 23.3754 38.4763 21.9319 37.6274C21.7989 37.5149 21.8234 37.303 21.9786 37.2238C23.5777 36.7259 24.8329 35.7165 25.4153 34.1466L25.7749 33.1775C25.8491 32.9779 26.1402 33.0116 26.1669 33.2228Z" fill="#FAB700"/>
<path d="M26.6354 37.7614C25.7205 37.2233 24.9881 36.5157 24.5203 35.6474C23.8668 36.3861 22.9922 36.9079 21.9787 37.223C21.8234 37.3029 21.799 37.5141 21.932 37.6273C22.8469 38.1654 23.5793 38.8729 24.047 39.7413C24.7006 39.0026 25.5751 38.4808 26.5887 38.1656C26.7439 38.0857 26.7684 37.8746 26.6354 37.7614Z" fill="#FAD200"/>
<path d="M41.0221 23.44C40.8603 24.8395 39.5942 25.8425 38.1954 25.6808C36.796 25.5191 35.7929 24.2537 35.9546 22.8542C36.1164 21.4548 37.3818 20.4516 38.7813 20.6134C40.18 20.7751 41.1839 22.0406 41.0221 23.44Z" fill="#005CA0"/>
<path d="M54.0955 24.9514C53.9338 26.3509 52.6684 27.354 51.2696 27.1923C49.8702 27.0305 48.867 25.7651 49.0288 24.3657C49.1906 22.9662 50.456 21.9631 51.8555 22.1249C53.2542 22.2866 54.2573 23.552 54.0955 24.9514Z" fill="#005CA0"/>
</svg>
