<svg width="212" height="212" viewBox="0 0 212 212" fill="none" xmlns="http://www.w3.org/2000/svg">
<g opacity="0.5">
<path d="M207.809 0.298587C183.145 -1.47774 158.814 4.71995 138.225 17.6002L149.387 62.6134L186.82 43.6514L211.44 0.560275L207.809 0.298587Z" fill="#EECCFF"/>
<path d="M211.44 0.560303L149.387 62.6131L194.4 73.775C207.28 53.1865 213.478 28.8553 211.702 4.19122L211.44 0.560303Z" fill="#EE99FF"/>
<path d="M148.076 138.349L146.651 125.705L102.306 140.59L89.5355 182.821L118.715 212L124.239 206.476C142.137 188.577 150.911 163.502 148.076 138.349Z" fill="#2D0390"/>
<path d="M73.6515 63.924C48.498 61.0893 23.4227 69.8633 5.52402 87.7616L0 93.2861L29.179 122.465L71.946 109.411L86.2949 65.3492L73.6515 63.924Z" fill="#5F05A7"/>
<path d="M1.80298 163.161L24.1343 140.83L32.9166 149.612L10.5853 171.943L1.80298 163.161Z" fill="#F2D05C"/>
<path d="M40.0153 201.382L62.3466 179.051L71.1288 187.833L48.7975 210.164L40.0153 201.382Z" fill="#F79F5E"/>
<path d="M138.225 17.6002C130.891 22.1885 124.027 27.6168 117.799 33.8452L29.1789 122.465L59.3571 152.643L153.999 97.2349L166.312 45.6878L138.225 17.6002Z" fill="#EF0671"/>
<path d="M59.3574 152.643L89.5356 182.821L178.155 94.2016C184.384 87.9733 189.812 81.1093 194.4 73.7754L166.313 45.6879L59.3574 152.643Z" fill="#A20589"/>
<path d="M9.89514 193.321L14.2871 197.713L33.1672 183.225L47.6556 164.345L43.2637 159.953L9.89514 193.321Z" fill="#F2D05C"/>
<path d="M14.2672 197.695L47.6305 164.331L52.0217 168.723L18.6584 202.086L14.2672 197.695Z" fill="#F79F5E"/>
<path d="M114.755 67.7652C106.614 75.9061 106.615 89.1044 114.755 97.2453L136.865 89.8754L144.235 67.7652C136.094 59.6243 122.895 59.6243 114.755 67.7652Z" fill="#063889"/>
<path d="M144.235 67.7653L114.755 97.2453C122.896 105.386 136.095 105.386 144.235 97.2453C152.376 89.1044 152.376 75.9057 144.235 67.7653Z" fill="#04275A"/>
</g>
</svg>
