<svg width="86" height="87" viewBox="0 0 86 87" fill="none" xmlns="http://www.w3.org/2000/svg">
<path d="M16.2602 1.54931L78.8206 8.97151C82.6596 9.42698 85.4026 12.9085 84.9472 16.7475L78.3496 72.3577C77.8941 76.1968 74.4126 78.9398 70.5736 78.4843L8.0132 71.0621C4.17417 70.6067 1.43116 67.1252 1.88663 63.2861L8.48426 7.67589C8.93972 3.83686 12.4212 1.09385 16.2602 1.54931Z" fill="#F0EAF9"/>
<path d="M11.1351 15.0394L80.6469 23.2863C82.5664 23.5141 83.9379 25.2547 83.7101 27.1742L83.7101 27.1744C83.4824 29.0939 81.7417 30.4654 79.8222 30.2376L10.3104 21.9907C8.39088 21.763 7.01945 20.0223 7.24718 18.1028L7.2472 18.1026C7.47494 16.1831 9.21559 14.8117 11.1351 15.0394Z" fill="#E1D5F3"/>
<path d="M16.2602 1.54931L78.8213 8.97159C82.6603 9.42705 85.4033 12.9085 84.9479 16.7476L83.7108 27.1744L7.24721 18.1027L8.48426 7.67589C8.93972 3.83686 12.4212 1.09385 16.2602 1.54931Z" fill="#5628B4"/>
<path d="M16.2604 1.54869L78.8221 8.97105C80.7416 9.19878 82.113 10.9394 81.8853 12.8589L81.8853 12.8591C81.6575 14.7786 79.9169 16.1501 77.9974 15.9223L15.4357 8.49997C13.5162 8.27224 12.1448 6.53159 12.3725 4.61207L12.3725 4.61191C12.6002 2.6924 14.3409 1.32096 16.2604 1.54869Z" fill="#6F48BF"/>
<path d="M12.8732 15.2456L78.9103 23.0803C79.8701 23.1942 80.5559 24.0646 80.442 25.0243C80.3281 25.9841 79.4577 26.6699 78.4979 26.556L12.4609 18.7213C11.5011 18.6075 10.8153 17.737 10.9292 16.7773C11.0431 15.8175 11.9135 15.1317 12.8732 15.2456Z" fill="#421198"/>
<path d="M81.1485 33.9189C80.1887 33.805 79.3183 34.4907 79.2044 35.4504C79.2044 35.4504 79.2044 35.4504 79.2044 35.4506L74.8748 71.9445C74.647 73.864 72.9064 75.2355 70.9869 75.0077L51.871 72.7398C50.9113 72.626 50.0409 73.3117 49.927 74.2715C49.8131 75.2313 50.4989 76.1017 51.4587 76.2155L70.5745 78.4835C74.4135 78.9389 77.8949 76.1959 78.3505 72.3569L82.6801 35.8629C82.794 34.903 82.1082 34.0328 81.1485 33.9189Z" fill="#D9C9EF"/>
<path d="M7.33582 32.2101C8.29558 32.324 8.98137 33.1944 8.8675 34.1541L5.56873 61.9589C5.45486 62.9187 4.58444 63.6045 3.62468 63.4906C2.66493 63.3767 1.97914 62.5063 2.093 61.5466L5.39178 33.7418C5.50565 32.782 6.37606 32.0962 7.33582 32.2101Z" fill="#DFD2F2"/>
<path d="M16.7614 12.1824C17.7212 12.2963 18.5916 11.6105 18.7055 10.6507C18.8193 9.69092 18.1336 8.82054 17.1738 8.70667C16.214 8.5928 15.3436 9.27856 15.2297 10.2383C15.1159 11.1981 15.8016 12.0685 16.7614 12.1824Z" fill="#F7B236"/>
<path d="M23.7117 13.007C24.6715 13.1208 25.5419 12.4351 25.6557 11.4753C25.7696 10.5155 25.0839 9.64512 24.1241 9.53125C23.1643 9.41738 22.2939 10.1031 22.18 11.0629C22.0661 12.0227 22.7519 12.8931 23.7117 13.007Z" fill="#B39DDD"/>
<path d="M30.6638 13.8318C31.6236 13.9457 32.494 13.2599 32.6078 12.3001C32.7217 11.3403 32.0359 10.47 31.0761 10.3561C30.1164 10.2422 29.246 10.928 29.1321 11.8878C29.0182 12.8476 29.704 13.7179 30.6638 13.8318Z" fill="#D80E70"/>
<path d="M69.5727 57.2172L34.8164 53.0937C32.8969 52.866 31.5255 51.1253 31.7532 49.2058L33.8149 31.8282C34.0427 29.9086 35.7833 28.5372 37.7028 28.7649L72.4591 32.8884C74.3786 33.1162 75.75 34.8568 75.5223 36.7763L73.4606 54.154C73.2328 56.0735 71.4922 57.4449 69.5727 57.2172Z" fill="#B39DDD"/>
<path d="M22.1509 41.0176L15.2001 40.1929C13.2806 39.9652 11.9092 38.2245 12.1369 36.305L12.9615 29.3542C13.1893 27.4347 14.9299 26.0633 16.8494 26.291L23.8002 27.1156C25.7197 27.3434 27.0912 29.084 26.8634 31.0036L26.0388 37.9543C25.8111 39.8739 24.0704 41.2453 22.1509 41.0176Z" fill="#B39DDD"/>
<path d="M19.2639 65.346L12.3131 64.5214C10.3936 64.2937 9.02216 62.553 9.24989 60.6335L10.0745 53.6827C10.3023 51.7632 12.0429 50.3918 13.9624 50.6195L20.9132 51.4441C22.8327 51.6719 24.2042 53.4125 23.9764 55.332L23.1518 62.2828C22.9241 64.2023 21.1834 65.5738 19.2639 65.346Z" fill="#B39DDD"/>
<path d="M32.6665 56.3626L43.0927 57.5995C44.0524 57.7134 44.7382 58.5838 44.6243 59.5436C44.5105 60.5033 43.6401 61.1891 42.6803 61.0752L32.2541 59.8383C31.2944 59.7244 30.6086 58.854 30.7224 57.8942C30.8363 56.9345 31.7067 56.2487 32.6665 56.3626Z" fill="#B39DDD"/>
<path d="M67.422 60.486L70.8975 60.8983C71.8573 61.0122 72.5431 61.8826 72.4292 62.8423C72.3153 63.8021 71.4449 64.4879 70.4852 64.374L67.0096 63.9617C66.0499 63.8478 65.3641 62.9774 65.4779 62.0176C65.5918 61.0579 66.4622 60.3721 67.422 60.486Z" fill="#B39DDD"/>
<path d="M50.0447 58.4243L60.4709 59.6613C61.4306 59.7752 62.1164 60.6456 62.0025 61.6053C61.8887 62.5651 61.0183 63.2509 60.0585 63.137L49.6323 61.9C48.6726 61.7862 47.9868 60.9158 48.1006 59.956C48.2145 58.9962 49.0849 58.3105 50.0447 58.4243Z" fill="#B39DDD"/>
<path d="M31.8417 63.3143L45.7446 64.9637C46.7044 65.0776 47.3901 65.948 47.2763 66.9078C47.1624 67.8675 46.292 68.5533 45.3322 68.4394L31.4293 66.79C30.4696 66.6761 29.7838 65.8057 29.8977 64.846C30.0115 63.8862 30.882 63.2004 31.8417 63.3143Z" fill="#B39DDD"/>
<path d="M52.6948 65.7883L56.1704 66.2007C57.1301 66.3145 57.8159 67.185 57.7021 68.1447C57.5882 69.1045 56.7178 69.7903 55.758 69.6764L52.2825 69.2641C51.3227 69.1502 50.6369 68.2798 50.7508 67.32C50.8647 66.3603 51.7351 65.6745 52.6948 65.7883Z" fill="#B39DDD"/>
<path d="M23.0632 48.1753L12.637 46.9383C11.6773 46.8244 10.9915 45.954 11.1053 44.9943C11.2192 44.0345 12.0896 43.3487 13.0494 43.4626L23.4756 44.6996C24.4353 44.8134 25.1211 45.6838 25.0073 46.6436C24.8934 47.6034 24.023 48.2891 23.0632 48.1753Z" fill="#B39DDD"/>
<path d="M41.3557 57.394L37.8804 56.9817C28.2829 55.843 19.5793 62.7003 18.4406 72.2981C18.4406 72.2982 18.4406 72.2982 18.4405 72.2984L18.4296 72.3905C18.2168 74.2904 16.365 75.5765 14.4665 75.3512L12.8145 75.1552C11.8547 75.0414 10.9843 75.7272 10.8704 76.6869C10.7566 77.6467 11.4424 78.5171 12.4021 78.631L24.5668 80.0742C34.1644 81.2127 42.8679 74.3552 44.0065 64.7576L44.8312 57.8064L41.3557 57.394Z" fill="#F7B236"/>
<path d="M44.0065 64.7576L44.8312 57.8064L41.3557 57.394C40.217 66.9916 31.5136 73.8491 21.9158 72.7104L18.4407 72.2981L18.4298 72.3903C18.217 74.2901 16.365 75.5763 14.4667 75.3511L12.8145 75.1551C11.8547 75.0412 10.9843 75.727 10.8704 76.6868C10.7566 77.6465 11.4424 78.5169 12.4021 78.6308L24.5668 80.074C34.1644 81.2125 42.8679 74.3552 44.0065 64.7576Z" fill="#F58B04"/>
<path d="M82.4077 28.2005C81.469 27.0091 79.9377 26.4503 78.4524 26.7571C65.6892 29.6321 54.5396 37.3473 47.3508 48.2782L45.6557 50.8553L44.831 57.8066L51.7823 58.6313L54.6845 57.5865C66.994 53.1549 77.1039 44.1199 82.8855 32.3839C83.5314 31.0112 83.3463 29.3918 82.4077 28.2005Z" fill="#D80E70"/>
<path d="M68.1092 36.3173C66.913 34.799 62.6685 36.1482 58.6291 39.3308C54.5896 42.5135 52.2847 46.3244 53.4809 47.8427C54.6772 49.361 58.9216 48.0117 62.9611 44.8291C67.0005 41.6464 69.3054 37.8356 68.1092 36.3173Z" fill="#E976AF"/>
<path d="M78.4523 26.757C77.8254 26.8982 77.2219 27.1043 76.603 27.2685C74.3016 42.7982 60.9525 54.2862 45.2533 54.2478L44.831 57.8066L51.7823 58.6313L54.6845 57.5863C66.9941 53.1548 77.1039 44.1198 82.8857 32.3837C83.8272 30.3825 82.9681 27.9969 80.9669 27.0553C80.183 26.6864 79.3008 26.5817 78.4523 26.757Z" fill="#A60068"/>
<path d="M41.3554 57.394L44.4186 61.2821L51.7823 58.631L45.6557 50.8552L41.3554 57.394Z" fill="#5628B4"/>
<path d="M43.0114 59.4957L44.4187 61.2819L51.7823 58.631L48.8433 54.9008C47.5744 53.2902 45.2404 53.0133 43.6299 54.2822C43.3164 54.5292 43.0449 54.825 42.8256 55.1584C41.9477 56.4936 42.0224 58.2407 43.0114 59.4957Z" fill="#420F9B"/>
<path d="M33.7281 60.3969C32.7963 59.2142 29.5923 60.1847 26.5718 62.5645C23.5513 64.9444 21.858 67.8323 22.7898 69.015C23.7216 70.1976 26.9256 69.2271 29.9461 66.8473C32.9667 64.4675 34.6599 61.5795 33.7281 60.3969Z" fill="#FBDA9E"/>
</svg>
